<svg width="351" height="100" viewBox="0 0 351 100" fill="none" xmlns="http://www.w3.org/2000/svg">
<g filter="url(#filter0_ddi_9_50)">
<mask id="path-1-outside-1_9_50" maskUnits="userSpaceOnUse" x="2" y="-4" width="346" height="91" fill="black">
<rect fill="white" x="2" y="-4" width="346" height="91"/>
<path d="M6.0975 0.428574H12.9546V7.28571H6.0975V0.428574ZM12.9546 0.428574H19.8118V7.28571H12.9546V0.428574ZM19.8118 0.428574H26.6689V7.28571H19.8118V0.428574ZM26.6689 0.428574H33.5261V7.28571H26.6689V0.428574ZM33.5261 0.428574H40.3832V7.28571H33.5261V0.428574ZM40.3832 0.428574H47.2404V7.28571H40.3832V0.428574ZM40.3832 7.28571H47.2404V14.1429H40.3832V7.28571ZM33.5261 7.28571H40.3832V14.1429H33.5261V7.28571ZM26.6689 7.28571H33.5261V14.1429H26.6689V7.28571ZM19.8118 7.28571H26.6689V14.1429H19.8118V7.28571ZM12.9546 7.28571H19.8118V14.1429H12.9546V7.28571ZM6.0975 7.28571H12.9546V14.1429H6.0975V7.28571ZM19.8118 14.1429H26.6689V21H19.8118V14.1429ZM19.8118 21H26.6689V27.8571H19.8118V21ZM19.8118 27.8571H26.6689V34.7143H19.8118V27.8571ZM19.8118 34.7143H26.6689V41.5714H19.8118V34.7143ZM19.8118 41.5714H26.6689V48.4286H19.8118V41.5714ZM19.8118 48.4286H26.6689V55.2857H19.8118V48.4286ZM26.6689 41.5714H33.5261V48.4286H26.6689V41.5714ZM26.6689 34.7143H33.5261V41.5714H26.6689V34.7143ZM26.6689 27.8571H33.5261V34.7143H26.6689V27.8571ZM26.6689 21H33.5261V27.8571H26.6689V21ZM26.6689 14.1429H33.5261V21H26.6689V14.1429ZM26.6689 48.4286H33.5261V55.2857H26.6689V48.4286ZM26.6689 55.2857H33.5261V62.1429H26.6689V55.2857ZM26.6689 62.1429H33.5261V69H26.6689V62.1429ZM19.8118 62.1429H26.6689V69H19.8118V62.1429ZM19.8118 55.2857H26.6689V62.1429H19.8118V55.2857ZM55.3775 14.1429H62.2346V21H55.3775V14.1429ZM62.2346 14.1429H69.0918V21H62.2346V14.1429ZM62.2346 21H69.0918V27.8571H62.2346V21ZM62.2346 27.8571H69.0918V34.7143H62.2346V27.8571ZM62.2346 34.7143H69.0918V41.5714H62.2346V34.7143ZM55.3775 27.8571H62.2346V34.7143H55.3775V27.8571ZM55.3775 21H62.2346V27.8571H55.3775V21ZM55.3775 34.7143H62.2346V41.5714H55.3775V34.7143ZM55.3775 41.5714H62.2346V48.4286H55.3775V41.5714ZM62.2346 41.5714H69.0918V48.4286H62.2346V41.5714ZM62.2346 48.4286H69.0918V55.2857H62.2346V48.4286ZM69.0918 48.4286H75.9489V55.2857H69.0918V48.4286ZM69.0918 55.2857H75.9489V62.1429H69.0918V55.2857ZM75.9489 55.2857H82.8061V62.1429H75.9489V55.2857ZM82.8061 55.2857H89.6632V62.1429H82.8061V55.2857ZM82.8061 48.4286H89.6632V55.2857H82.8061V48.4286ZM82.8061 41.5714H89.6632V48.4286H82.8061V41.5714ZM89.6632 41.5714H96.5204V48.4286H89.6632V41.5714ZM89.6632 48.4286H96.5204V55.2857H89.6632V48.4286ZM89.6632 34.7143H96.5204V41.5714H89.6632V34.7143ZM82.8061 34.7143H89.6632V41.5714H82.8061V34.7143ZM82.8061 14.1429H89.6632V21H82.8061V14.1429ZM89.6632 14.1429H96.5204V21H89.6632V14.1429ZM89.6632 21H96.5204V27.8571H89.6632V21ZM89.6632 27.8571H96.5204V34.7143H89.6632V27.8571ZM82.8061 21H89.6632V27.8571H82.8061V21ZM82.8061 27.8571H89.6632V34.7143H82.8061V27.8571ZM75.9489 62.1429H82.8061V69H75.9489V62.1429ZM69.0918 62.1429H75.9489V69H69.0918V62.1429ZM69.0918 69H75.9489V75.8571H69.0918V69ZM62.2346 69H69.0918V75.8571H62.2346V69ZM62.2346 62.1429H69.0918V69H62.2346V62.1429ZM62.2346 75.8571H69.0918V82.7143H62.2346V75.8571ZM55.3775 75.8571H62.2346V82.7143H55.3775V75.8571ZM55.3775 69H62.2346V75.8571H55.3775V69ZM75.9489 48.4286H82.8061V55.2857H75.9489V48.4286ZM69.0918 41.5714H75.9489V48.4286H69.0918V41.5714ZM118.372 14.1429H125.229V21H118.372V14.1429ZM111.515 14.1429H118.372V21H111.515V14.1429ZM111.515 21H118.372V27.8571H111.515V21ZM118.372 21H125.229V27.8571H118.372V21ZM125.229 14.1429H132.086V21H125.229V14.1429ZM132.086 14.1429H138.943V21H132.086V14.1429ZM138.943 14.1429H145.8V21H138.943V14.1429ZM138.943 21H145.8V27.8571H138.943V21ZM132.086 21H138.943V27.8571H132.086V21ZM145.8 21H152.658V27.8571H145.8V21ZM145.8 27.8571H152.658V34.7143H145.8V27.8571ZM145.8 48.4286H152.658V55.2857H145.8V48.4286ZM145.8 55.2857H152.658V62.1429H145.8V55.2857ZM138.943 55.2857H145.8V62.1429H138.943V55.2857ZM138.943 48.4286H145.8V55.2857H138.943V48.4286ZM138.943 27.8571H145.8V34.7143H138.943V27.8571ZM132.086 55.2857H138.943V62.1429H132.086V55.2857ZM138.943 62.1429H145.8V69H138.943V62.1429ZM132.086 62.1429H138.943V69H132.086V62.1429ZM125.229 62.1429H132.086V69H125.229V62.1429ZM118.372 62.1429H125.229V69H118.372V62.1429ZM111.515 62.1429H118.372V69H111.515V62.1429ZM111.515 55.2857H118.372V62.1429H111.515V55.2857ZM118.372 55.2857H125.229V62.1429H118.372V55.2857ZM111.515 48.4286H118.372V55.2857H111.515V48.4286ZM104.658 55.2857H111.515V62.1429H104.658V55.2857ZM104.658 48.4286H111.515V55.2857H104.658V48.4286ZM104.658 41.5714H111.515V48.4286H104.658V41.5714ZM104.658 34.7143H111.515V41.5714H104.658V34.7143ZM104.658 27.8571H111.515V34.7143H104.658V27.8571ZM104.658 21H111.515V27.8571H104.658V21ZM111.515 27.8571H118.372V34.7143H111.515V27.8571ZM111.515 34.7143H118.372V41.5714H111.515V34.7143ZM111.515 41.5714H118.372V48.4286H111.515V41.5714ZM125.229 55.2857H132.086V62.1429H125.229V55.2857ZM125.229 21H132.086V27.8571H125.229V21ZM174.527 14.1429H181.384V21H174.527V14.1429ZM167.67 14.1429H174.527V21H167.67V14.1429ZM167.67 21H174.527V27.8571H167.67V21ZM174.527 21H181.384V27.8571H174.527V21ZM181.384 14.1429H188.241V21H181.384V14.1429ZM188.241 14.1429H195.098V21H188.241V14.1429ZM195.098 14.1429H201.955V21H195.098V14.1429ZM195.098 21H201.955V27.8571H195.098V21ZM188.241 21H195.098V27.8571H188.241V21ZM195.098 34.7143H201.955V41.5714H195.098V34.7143ZM201.955 21H208.812V27.8571H201.955V21ZM201.955 27.8571H208.812V34.7143H201.955V27.8571ZM201.955 34.7143H208.812V41.5714H201.955V34.7143ZM201.955 41.5714H208.812V48.4286H201.955V41.5714ZM201.955 48.4286H208.812V55.2857H201.955V48.4286ZM201.955 55.2857H208.812V62.1429H201.955V55.2857ZM195.098 55.2857H201.955V62.1429H195.098V55.2857ZM195.098 48.4286H201.955V55.2857H195.098V48.4286ZM195.098 41.5714H201.955V48.4286H195.098V41.5714ZM195.098 27.8571H201.955V34.7143H195.098V27.8571ZM188.241 55.2857H195.098V62.1429H188.241V55.2857ZM195.098 62.1429H201.955V69H195.098V62.1429ZM188.241 62.1429H195.098V69H188.241V62.1429ZM181.384 62.1429H188.241V69H181.384V62.1429ZM174.527 62.1429H181.384V69H174.527V62.1429ZM167.67 62.1429H174.527V69H167.67V62.1429ZM167.67 55.2857H174.527V62.1429H167.67V55.2857ZM174.527 55.2857H181.384V62.1429H174.527V55.2857ZM167.67 48.4286H174.527V55.2857H167.67V48.4286ZM160.812 55.2857H167.67V62.1429H160.812V55.2857ZM160.812 48.4286H167.67V55.2857H160.812V48.4286ZM160.812 41.5714H167.67V48.4286H160.812V41.5714ZM160.812 34.7143H167.67V41.5714H160.812V34.7143ZM160.812 27.8571H167.67V34.7143H160.812V27.8571ZM160.812 21H167.67V27.8571H160.812V21ZM167.67 27.8571H174.527V34.7143H167.67V27.8571ZM167.67 34.7143H174.527V41.5714H167.67V34.7143ZM167.67 41.5714H174.527V48.4286H167.67V41.5714ZM181.384 55.2857H188.241V62.1429H181.384V55.2857ZM181.384 21H188.241V27.8571H181.384V21ZM216.967 21H223.825V27.8571H216.967V21ZM216.967 14.1429H223.825V21H216.967V14.1429ZM223.825 14.1429H230.682V21H223.825V14.1429ZM223.825 21H230.682V27.8571H223.825V21ZM223.825 27.8571H230.682V34.7143H223.825V27.8571ZM223.825 34.7143H230.682V41.5714H223.825V34.7143ZM223.825 41.5714H230.682V48.4286H223.825V41.5714ZM216.967 41.5714H223.825V48.4286H216.967V41.5714ZM216.967 34.7143H223.825V41.5714H216.967V34.7143ZM216.967 27.8571H223.825V34.7143H216.967V27.8571ZM216.967 48.4286H223.825V55.2857H216.967V48.4286ZM223.825 48.4286H230.682V55.2857H223.825V48.4286ZM223.825 55.2857H230.682V62.1429H223.825V55.2857ZM223.825 62.1429H230.682V69H223.825V62.1429ZM216.967 62.1429H223.825V69H216.967V62.1429ZM216.967 55.2857H223.825V62.1429H216.967V55.2857ZM251.253 62.1429H258.11V69H251.253V62.1429ZM258.11 62.1429H264.967V69H258.11V62.1429ZM258.11 55.2857H264.967V62.1429H258.11V55.2857ZM258.11 48.4286H264.967V55.2857H258.11V48.4286ZM258.11 41.5714H264.967V48.4286H258.11V41.5714ZM258.11 34.7143H264.967V41.5714H258.11V34.7143ZM258.11 27.8571H264.967V34.7143H258.11V27.8571ZM258.11 21H264.967V27.8571H258.11V21ZM251.253 34.7143H258.11V41.5714H251.253V34.7143ZM251.253 41.5714H258.11V48.4286H251.253V41.5714ZM251.253 48.4286H258.11V55.2857H251.253V48.4286ZM251.253 55.2857H258.11V62.1429H251.253V55.2857ZM251.253 27.8571H258.11V34.7143H251.253V27.8571ZM230.682 21H237.539V27.8571H230.682V21ZM237.539 21H244.396V27.8571H237.539V21ZM244.396 21H251.253V27.8571H244.396V21ZM244.396 14.1429H251.253V21H244.396V14.1429ZM251.253 14.1429H258.11V21H251.253V14.1429ZM251.253 21H258.11V27.8571H251.253V21ZM237.539 14.1429H244.396V21H237.539V14.1429ZM273.122 0.428574H286.837V14.1429H273.122V0.428574ZM273.122 21H286.837V69H273.122V21ZM308.742 14.1429H315.599V21H308.742V14.1429ZM301.885 14.1429H308.742V21H301.885V14.1429ZM301.885 21H308.742V27.8571H301.885V21ZM308.742 21H315.599V27.8571H308.742V21ZM315.599 14.1429H322.456V21H315.599V14.1429ZM322.456 14.1429H329.313V21H322.456V14.1429ZM329.313 14.1429H336.17V21H329.313V14.1429ZM329.313 21H336.17V27.8571H329.313V21ZM322.456 21H329.313V27.8571H322.456V21ZM336.17 21H343.027V27.8571H336.17V21ZM336.17 27.8571H343.027V34.7143H336.17V27.8571ZM336.17 48.4286H343.027V55.2857H336.17V48.4286ZM336.17 55.2857H343.027V62.1429H336.17V55.2857ZM329.313 55.2857H336.17V62.1429H329.313V55.2857ZM329.313 48.4286H336.17V55.2857H329.313V48.4286ZM329.313 27.8571H336.17V34.7143H329.313V27.8571ZM322.456 55.2857H329.313V62.1429H322.456V55.2857ZM329.313 62.1429H336.17V69H329.313V62.1429ZM322.456 62.1429H329.313V69H322.456V62.1429ZM315.599 62.1429H322.456V69H315.599V62.1429ZM308.742 62.1429H315.599V69H308.742V62.1429ZM301.885 62.1429H308.742V69H301.885V62.1429ZM301.885 55.2857H308.742V62.1429H301.885V55.2857ZM308.742 55.2857H315.599V62.1429H308.742V55.2857ZM301.885 48.4286H308.742V55.2857H301.885V48.4286ZM295.027 55.2857H301.885V62.1429H295.027V55.2857ZM295.027 48.4286H301.885V55.2857H295.027V48.4286ZM295.027 41.5714H301.885V48.4286H295.027V41.5714ZM295.027 34.7143H301.885V41.5714H295.027V34.7143ZM295.027 27.8571H301.885V34.7143H295.027V27.8571ZM295.027 21H301.885V27.8571H295.027V21ZM301.885 27.8571H308.742V34.7143H301.885V27.8571ZM301.885 34.7143H308.742V41.5714H301.885V34.7143ZM301.885 41.5714H308.742V48.4286H301.885V41.5714ZM315.599 55.2857H322.456V62.1429H315.599V55.2857ZM315.599 21H322.456V27.8571H315.599V21Z"/>
</mask>
<path d="M6.0975 0.428574H12.9546V7.28571H6.0975V0.428574ZM12.9546 0.428574H19.8118V7.28571H12.9546V0.428574ZM19.8118 0.428574H26.6689V7.28571H19.8118V0.428574ZM26.6689 0.428574H33.5261V7.28571H26.6689V0.428574ZM33.5261 0.428574H40.3832V7.28571H33.5261V0.428574ZM40.3832 0.428574H47.2404V7.28571H40.3832V0.428574ZM40.3832 7.28571H47.2404V14.1429H40.3832V7.28571ZM33.5261 7.28571H40.3832V14.1429H33.5261V7.28571ZM26.6689 7.28571H33.5261V14.1429H26.6689V7.28571ZM19.8118 7.28571H26.6689V14.1429H19.8118V7.28571ZM12.9546 7.28571H19.8118V14.1429H12.9546V7.28571ZM6.0975 7.28571H12.9546V14.1429H6.0975V7.28571ZM19.8118 14.1429H26.6689V21H19.8118V14.1429ZM19.8118 21H26.6689V27.8571H19.8118V21ZM19.8118 27.8571H26.6689V34.7143H19.8118V27.8571ZM19.8118 34.7143H26.6689V41.5714H19.8118V34.7143ZM19.8118 41.5714H26.6689V48.4286H19.8118V41.5714ZM19.8118 48.4286H26.6689V55.2857H19.8118V48.4286ZM26.6689 41.5714H33.5261V48.4286H26.6689V41.5714ZM26.6689 34.7143H33.5261V41.5714H26.6689V34.7143ZM26.6689 27.8571H33.5261V34.7143H26.6689V27.8571ZM26.6689 21H33.5261V27.8571H26.6689V21ZM26.6689 14.1429H33.5261V21H26.6689V14.1429ZM26.6689 48.4286H33.5261V55.2857H26.6689V48.4286ZM26.6689 55.2857H33.5261V62.1429H26.6689V55.2857ZM26.6689 62.1429H33.5261V69H26.6689V62.1429ZM19.8118 62.1429H26.6689V69H19.8118V62.1429ZM19.8118 55.2857H26.6689V62.1429H19.8118V55.2857ZM55.3775 14.1429H62.2346V21H55.3775V14.1429ZM62.2346 14.1429H69.0918V21H62.2346V14.1429ZM62.2346 21H69.0918V27.8571H62.2346V21ZM62.2346 27.8571H69.0918V34.7143H62.2346V27.8571ZM62.2346 34.7143H69.0918V41.5714H62.2346V34.7143ZM55.3775 27.8571H62.2346V34.7143H55.3775V27.8571ZM55.3775 21H62.2346V27.8571H55.3775V21ZM55.3775 34.7143H62.2346V41.5714H55.3775V34.7143ZM55.3775 41.5714H62.2346V48.4286H55.3775V41.5714ZM62.2346 41.5714H69.0918V48.4286H62.2346V41.5714ZM62.2346 48.4286H69.0918V55.2857H62.2346V48.4286ZM69.0918 48.4286H75.9489V55.2857H69.0918V48.4286ZM69.0918 55.2857H75.9489V62.1429H69.0918V55.2857ZM75.9489 55.2857H82.8061V62.1429H75.9489V55.2857ZM82.8061 55.2857H89.6632V62.1429H82.8061V55.2857ZM82.8061 48.4286H89.6632V55.2857H82.8061V48.4286ZM82.8061 41.5714H89.6632V48.4286H82.8061V41.5714ZM89.6632 41.5714H96.5204V48.4286H89.6632V41.5714ZM89.6632 48.4286H96.5204V55.2857H89.6632V48.4286ZM89.6632 34.7143H96.5204V41.5714H89.6632V34.7143ZM82.8061 34.7143H89.6632V41.5714H82.8061V34.7143ZM82.8061 14.1429H89.6632V21H82.8061V14.1429ZM89.6632 14.1429H96.5204V21H89.6632V14.1429ZM89.6632 21H96.5204V27.8571H89.6632V21ZM89.6632 27.8571H96.5204V34.7143H89.6632V27.8571ZM82.8061 21H89.6632V27.8571H82.8061V21ZM82.8061 27.8571H89.6632V34.7143H82.8061V27.8571ZM75.9489 62.1429H82.8061V69H75.9489V62.1429ZM69.0918 62.1429H75.9489V69H69.0918V62.1429ZM69.0918 69H75.9489V75.8571H69.0918V69ZM62.2346 69H69.0918V75.8571H62.2346V69ZM62.2346 62.1429H69.0918V69H62.2346V62.1429ZM62.2346 75.8571H69.0918V82.7143H62.2346V75.8571ZM55.3775 75.8571H62.2346V82.7143H55.3775V75.8571ZM55.3775 69H62.2346V75.8571H55.3775V69ZM75.9489 48.4286H82.8061V55.2857H75.9489V48.4286ZM69.0918 41.5714H75.9489V48.4286H69.0918V41.5714ZM118.372 14.1429H125.229V21H118.372V14.1429ZM111.515 14.1429H118.372V21H111.515V14.1429ZM111.515 21H118.372V27.8571H111.515V21ZM118.372 21H125.229V27.8571H118.372V21ZM125.229 14.1429H132.086V21H125.229V14.1429ZM132.086 14.1429H138.943V21H132.086V14.1429ZM138.943 14.1429H145.8V21H138.943V14.1429ZM138.943 21H145.8V27.8571H138.943V21ZM132.086 21H138.943V27.8571H132.086V21ZM145.8 21H152.658V27.8571H145.8V21ZM145.8 27.8571H152.658V34.7143H145.8V27.8571ZM145.8 48.4286H152.658V55.2857H145.8V48.4286ZM145.8 55.2857H152.658V62.1429H145.8V55.2857ZM138.943 55.2857H145.8V62.1429H138.943V55.2857ZM138.943 48.4286H145.8V55.2857H138.943V48.4286ZM138.943 27.8571H145.8V34.7143H138.943V27.8571ZM132.086 55.2857H138.943V62.1429H132.086V55.2857ZM138.943 62.1429H145.8V69H138.943V62.1429ZM132.086 62.1429H138.943V69H132.086V62.1429ZM125.229 62.1429H132.086V69H125.229V62.1429ZM118.372 62.1429H125.229V69H118.372V62.1429ZM111.515 62.1429H118.372V69H111.515V62.1429ZM111.515 55.2857H118.372V62.1429H111.515V55.2857ZM118.372 55.2857H125.229V62.1429H118.372V55.2857ZM111.515 48.4286H118.372V55.2857H111.515V48.4286ZM104.658 55.2857H111.515V62.1429H104.658V55.2857ZM104.658 48.4286H111.515V55.2857H104.658V48.4286ZM104.658 41.5714H111.515V48.4286H104.658V41.5714ZM104.658 34.7143H111.515V41.5714H104.658V34.7143ZM104.658 27.8571H111.515V34.7143H104.658V27.8571ZM104.658 21H111.515V27.8571H104.658V21ZM111.515 27.8571H118.372V34.7143H111.515V27.8571ZM111.515 34.7143H118.372V41.5714H111.515V34.7143ZM111.515 41.5714H118.372V48.4286H111.515V41.5714ZM125.229 55.2857H132.086V62.1429H125.229V55.2857ZM125.229 21H132.086V27.8571H125.229V21ZM174.527 14.1429H181.384V21H174.527V14.1429ZM167.67 14.1429H174.527V21H167.67V14.1429ZM167.67 21H174.527V27.8571H167.67V21ZM174.527 21H181.384V27.8571H174.527V21ZM181.384 14.1429H188.241V21H181.384V14.1429ZM188.241 14.1429H195.098V21H188.241V14.1429ZM195.098 14.1429H201.955V21H195.098V14.1429ZM195.098 21H201.955V27.8571H195.098V21ZM188.241 21H195.098V27.8571H188.241V21ZM195.098 34.7143H201.955V41.5714H195.098V34.7143ZM201.955 21H208.812V27.8571H201.955V21ZM201.955 27.8571H208.812V34.7143H201.955V27.8571ZM201.955 34.7143H208.812V41.5714H201.955V34.7143ZM201.955 41.5714H208.812V48.4286H201.955V41.5714ZM201.955 48.4286H208.812V55.2857H201.955V48.4286ZM201.955 55.2857H208.812V62.1429H201.955V55.2857ZM195.098 55.2857H201.955V62.1429H195.098V55.2857ZM195.098 48.4286H201.955V55.2857H195.098V48.4286ZM195.098 41.5714H201.955V48.4286H195.098V41.5714ZM195.098 27.8571H201.955V34.7143H195.098V27.8571ZM188.241 55.2857H195.098V62.1429H188.241V55.2857ZM195.098 62.1429H201.955V69H195.098V62.1429ZM188.241 62.1429H195.098V69H188.241V62.1429ZM181.384 62.1429H188.241V69H181.384V62.1429ZM174.527 62.1429H181.384V69H174.527V62.1429ZM167.67 62.1429H174.527V69H167.67V62.1429ZM167.67 55.2857H174.527V62.1429H167.67V55.2857ZM174.527 55.2857H181.384V62.1429H174.527V55.2857ZM167.67 48.4286H174.527V55.2857H167.67V48.4286ZM160.812 55.2857H167.67V62.1429H160.812V55.2857ZM160.812 48.4286H167.67V55.2857H160.812V48.4286ZM160.812 41.5714H167.67V48.4286H160.812V41.5714ZM160.812 34.7143H167.67V41.5714H160.812V34.7143ZM160.812 27.8571H167.67V34.7143H160.812V27.8571ZM160.812 21H167.67V27.8571H160.812V21ZM167.67 27.8571H174.527V34.7143H167.67V27.8571ZM167.67 34.7143H174.527V41.5714H167.67V34.7143ZM167.67 41.5714H174.527V48.4286H167.67V41.5714ZM181.384 55.2857H188.241V62.1429H181.384V55.2857ZM181.384 21H188.241V27.8571H181.384V21ZM216.967 21H223.825V27.8571H216.967V21ZM216.967 14.1429H223.825V21H216.967V14.1429ZM223.825 14.1429H230.682V21H223.825V14.1429ZM223.825 21H230.682V27.8571H223.825V21ZM223.825 27.8571H230.682V34.7143H223.825V27.8571ZM223.825 34.7143H230.682V41.5714H223.825V34.7143ZM223.825 41.5714H230.682V48.4286H223.825V41.5714ZM216.967 41.5714H223.825V48.4286H216.967V41.5714ZM216.967 34.7143H223.825V41.5714H216.967V34.7143ZM216.967 27.8571H223.825V34.7143H216.967V27.8571ZM216.967 48.4286H223.825V55.2857H216.967V48.4286ZM223.825 48.4286H230.682V55.2857H223.825V48.4286ZM223.825 55.2857H230.682V62.1429H223.825V55.2857ZM223.825 62.1429H230.682V69H223.825V62.1429ZM216.967 62.1429H223.825V69H216.967V62.1429ZM216.967 55.2857H223.825V62.1429H216.967V55.2857ZM251.253 62.1429H258.11V69H251.253V62.1429ZM258.11 62.1429H264.967V69H258.11V62.1429ZM258.11 55.2857H264.967V62.1429H258.11V55.2857ZM258.11 48.4286H264.967V55.2857H258.11V48.4286ZM258.11 41.5714H264.967V48.4286H258.11V41.5714ZM258.11 34.7143H264.967V41.5714H258.11V34.7143ZM258.11 27.8571H264.967V34.7143H258.11V27.8571ZM258.11 21H264.967V27.8571H258.11V21ZM251.253 34.7143H258.11V41.5714H251.253V34.7143ZM251.253 41.5714H258.11V48.4286H251.253V41.5714ZM251.253 48.4286H258.11V55.2857H251.253V48.4286ZM251.253 55.2857H258.11V62.1429H251.253V55.2857ZM251.253 27.8571H258.11V34.7143H251.253V27.8571ZM230.682 21H237.539V27.8571H230.682V21ZM237.539 21H244.396V27.8571H237.539V21ZM244.396 21H251.253V27.8571H244.396V21ZM244.396 14.1429H251.253V21H244.396V14.1429ZM251.253 14.1429H258.11V21H251.253V14.1429ZM251.253 21H258.11V27.8571H251.253V21ZM237.539 14.1429H244.396V21H237.539V14.1429ZM273.122 0.428574H286.837V14.1429H273.122V0.428574ZM273.122 21H286.837V69H273.122V21ZM308.742 14.1429H315.599V21H308.742V14.1429ZM301.885 14.1429H308.742V21H301.885V14.1429ZM301.885 21H308.742V27.8571H301.885V21ZM308.742 21H315.599V27.8571H308.742V21ZM315.599 14.1429H322.456V21H315.599V14.1429ZM322.456 14.1429H329.313V21H322.456V14.1429ZM329.313 14.1429H336.17V21H329.313V14.1429ZM329.313 21H336.17V27.8571H329.313V21ZM322.456 21H329.313V27.8571H322.456V21ZM336.17 21H343.027V27.8571H336.17V21ZM336.17 27.8571H343.027V34.7143H336.17V27.8571ZM336.17 48.4286H343.027V55.2857H336.17V48.4286ZM336.17 55.2857H343.027V62.1429H336.17V55.2857ZM329.313 55.2857H336.17V62.1429H329.313V55.2857ZM329.313 48.4286H336.17V55.2857H329.313V48.4286ZM329.313 27.8571H336.17V34.7143H329.313V27.8571ZM322.456 55.2857H329.313V62.1429H322.456V55.2857ZM329.313 62.1429H336.17V69H329.313V62.1429ZM322.456 62.1429H329.313V69H322.456V62.1429ZM315.599 62.1429H322.456V69H315.599V62.1429ZM308.742 62.1429H315.599V69H308.742V62.1429ZM301.885 62.1429H308.742V69H301.885V62.1429ZM301.885 55.2857H308.742V62.1429H301.885V55.2857ZM308.742 55.2857H315.599V62.1429H308.742V55.2857ZM301.885 48.4286H308.742V55.2857H301.885V48.4286ZM295.027 55.2857H301.885V62.1429H295.027V55.2857ZM295.027 48.4286H301.885V55.2857H295.027V48.4286ZM295.027 41.5714H301.885V48.4286H295.027V41.5714ZM295.027 34.7143H301.885V41.5714H295.027V34.7143ZM295.027 27.8571H301.885V34.7143H295.027V27.8571ZM295.027 21H301.885V27.8571H295.027V21ZM301.885 27.8571H308.742V34.7143H301.885V27.8571ZM301.885 34.7143H308.742V41.5714H301.885V34.7143ZM301.885 41.5714H308.742V48.4286H301.885V41.5714ZM315.599 55.2857H322.456V62.1429H315.599V55.2857ZM315.599 21H322.456V27.8571H315.599V21Z" fill="#FF1818"/>
<path d="M6.0975 0.428574V-3.57143H2.0975V0.428574H6.0975ZM12.9546 0.428574H16.9546V-3.57143H12.9546V0.428574ZM12.9546 7.28571V11.2857H16.9546V7.28571H12.9546ZM6.0975 7.28571H2.0975V11.2857H6.0975V7.28571ZM12.9546 0.428574V-3.57143H8.95465V0.428574H12.9546ZM19.8118 0.428574H23.8118V-3.57143H19.8118V0.428574ZM19.8118 7.28571V11.2857H23.8118V7.28571H19.8118ZM12.9546 7.28571H8.95465V11.2857H12.9546V7.28571ZM19.8118 0.428574V-3.57143H15.8118V0.428574H19.8118ZM26.6689 0.428574H30.6689V-3.57143H26.6689V0.428574ZM26.6689 7.28571V11.2857H30.6689V7.28571H26.6689ZM19.8118 7.28571H15.8118V11.2857H19.8118V7.28571ZM26.6689 0.428574V-3.57143H22.6689V0.428574H26.6689ZM33.5261 0.428574H37.5261V-3.57143H33.5261V0.428574ZM33.5261 7.28571V11.2857H37.5261V7.28571H33.5261ZM26.6689 7.28571H22.6689V11.2857H26.6689V7.28571ZM33.5261 0.428574V-3.57143H29.5261V0.428574H33.5261ZM40.3832 0.428574H44.3832V-3.57143H40.3832V0.428574ZM40.3832 7.28571V11.2857H44.3832V7.28571H40.3832ZM33.5261 7.28571H29.5261V11.2857H33.5261V7.28571ZM40.3832 0.428574V-3.57143H36.3832V0.428574H40.3832ZM47.2404 0.428574H51.2404V-3.57143H47.2404V0.428574ZM47.2404 7.28571V11.2857H51.2404V7.28571H47.2404ZM40.3832 7.28571H36.3832V11.2857H40.3832V7.28571ZM40.3832 7.28571V3.28571H36.3832V7.28571H40.3832ZM47.2404 7.28571H51.2404V3.28571H47.2404V7.28571ZM47.2404 14.1429V18.1429H51.2404V14.1429H47.2404ZM40.3832 14.1429H36.3832V18.1429H40.3832V14.1429ZM33.5261 7.28571V3.28571H29.5261V7.28571H33.5261ZM40.3832 7.28571H44.3832V3.28571H40.3832V7.28571ZM40.3832 14.1429V18.1429H44.3832V14.1429H40.3832ZM33.5261 14.1429H29.5261V18.1429H33.5261V14.1429ZM26.6689 7.28571V3.28571H22.6689V7.28571H26.6689ZM33.5261 7.28571H37.5261V3.28571H33.5261V7.28571ZM33.5261 14.1429V18.1429H37.5261V14.1429H33.5261ZM26.6689 14.1429H22.6689V18.1429H26.6689V14.1429ZM19.8118 7.28571V3.28571H15.8118V7.28571H19.8118ZM26.6689 7.28571H30.6689V3.28571H26.6689V7.28571ZM26.6689 14.1429V18.1429H30.6689V14.1429H26.6689ZM19.8118 14.1429H15.8118V18.1429H19.8118V14.1429ZM12.9546 7.28571V3.28571H8.95465V7.28571H12.9546ZM19.8118 7.28571H23.8118V3.28571H19.8118V7.28571ZM19.8118 14.1429V18.1429H23.8118V14.1429H19.8118ZM12.9546 14.1429H8.95465V18.1429H12.9546V14.1429ZM6.0975 7.28571V3.28571H2.0975V7.28571H6.0975ZM12.9546 7.28571H16.9546V3.28571H12.9546V7.28571ZM12.9546 14.1429V18.1429H16.9546V14.1429H12.9546ZM6.0975 14.1429H2.0975V18.1429H6.0975V14.1429ZM19.8118 14.1429V10.1429H15.8118V14.1429H19.8118ZM26.6689 14.1429H30.6689V10.1429H26.6689V14.1429ZM26.6689 21V25H30.6689V21H26.6689ZM19.8118 21H15.8118V25H19.8118V21ZM19.8118 21V17H15.8118V21H19.8118ZM26.6689 21H30.6689V17H26.6689V21ZM26.6689 27.8571V31.8571H30.6689V27.8571H26.6689ZM19.8118 27.8571H15.8118V31.8571H19.8118V27.8571ZM19.8118 27.8571V23.8571H15.8118V27.8571H19.8118ZM26.6689 27.8571H30.6689V23.8571H26.6689V27.8571ZM26.6689 34.7143V38.7143H30.6689V34.7143H26.6689ZM19.8118 34.7143H15.8118V38.7143H19.8118V34.7143ZM19.8118 34.7143V30.7143H15.8118V34.7143H19.8118ZM26.6689 34.7143H30.6689V30.7143H26.6689V34.7143ZM26.6689 41.5714V45.5714H30.6689V41.5714H26.6689ZM19.8118 41.5714H15.8118V45.5714H19.8118V41.5714ZM19.8118 41.5714V37.5714H15.8118V41.5714H19.8118ZM26.6689 41.5714H30.6689V37.5714H26.6689V41.5714ZM26.6689 48.4286V52.4286H30.6689V48.4286H26.6689ZM19.8118 48.4286H15.8118V52.4286H19.8118V48.4286ZM19.8118 48.4286V44.4286H15.8118V48.4286H19.8118ZM26.6689 48.4286H30.6689V44.4286H26.6689V48.4286ZM26.6689 55.2857V59.2857H30.6689V55.2857H26.6689ZM19.8118 55.2857H15.8118V59.2857H19.8118V55.2857ZM26.6689 41.5714V37.5714H22.6689V41.5714H26.6689ZM33.5261 41.5714H37.5261V37.5714H33.5261V41.5714ZM33.5261 48.4286V52.4286H37.5261V48.4286H33.5261ZM26.6689 48.4286H22.6689V52.4286H26.6689V48.4286ZM26.6689 34.7143V30.7143H22.6689V34.7143H26.6689ZM33.5261 34.7143H37.5261V30.7143H33.5261V34.7143ZM33.5261 41.5714V45.5714H37.5261V41.5714H33.5261ZM26.6689 41.5714H22.6689V45.5714H26.6689V41.5714ZM26.6689 27.8571V23.8571H22.6689V27.8571H26.6689ZM33.5261 27.8571H37.5261V23.8571H33.5261V27.8571ZM33.5261 34.7143V38.7143H37.5261V34.7143H33.5261ZM26.6689 34.7143H22.6689V38.7143H26.6689V34.7143ZM26.6689 21V17H22.6689V21H26.6689ZM33.5261 21H37.5261V17H33.5261V21ZM33.5261 27.8571V31.8571H37.5261V27.8571H33.5261ZM26.6689 27.8571H22.6689V31.8571H26.6689V27.8571ZM26.6689 14.1429V10.1429H22.6689V14.1429H26.6689ZM33.5261 14.1429H37.5261V10.1429H33.5261V14.1429ZM33.5261 21V25H37.5261V21H33.5261ZM26.6689 21H22.6689V25H26.6689V21ZM26.6689 48.4286V44.4286H22.6689V48.4286H26.6689ZM33.5261 48.4286H37.5261V44.4286H33.5261V48.4286ZM33.5261 55.2857V59.2857H37.5261V55.2857H33.5261ZM26.6689 55.2857H22.6689V59.2857H26.6689V55.2857ZM26.6689 55.2857V51.2857H22.6689V55.2857H26.6689ZM33.5261 55.2857H37.5261V51.2857H33.5261V55.2857ZM33.5261 62.1429V66.1429H37.5261V62.1429H33.5261ZM26.6689 62.1429H22.6689V66.1429H26.6689V62.1429ZM26.6689 62.1429V58.1429H22.6689V62.1429H26.6689ZM33.5261 62.1429H37.5261V58.1429H33.5261V62.1429ZM33.5261 69V73H37.5261V69H33.5261ZM26.6689 69H22.6689V73H26.6689V69ZM19.8118 62.1429V58.1429H15.8118V62.1429H19.8118ZM26.6689 62.1429H30.6689V58.1429H26.6689V62.1429ZM26.6689 69V73H30.6689V69H26.6689ZM19.8118 69H15.8118V73H19.8118V69ZM19.8118 55.2857V51.2857H15.8118V55.2857H19.8118ZM26.6689 55.2857H30.6689V51.2857H26.6689V55.2857ZM26.6689 62.1429V66.1429H30.6689V62.1429H26.6689ZM19.8118 62.1429H15.8118V66.1429H19.8118V62.1429ZM6.0975 4.42857H12.9546V-3.57143H6.0975V4.42857ZM8.95465 0.428574V7.28571H16.9546V0.428574H8.95465ZM12.9546 3.28571H6.0975V11.2857H12.9546V3.28571ZM10.0975 7.28571V0.428574H2.0975V7.28571H10.0975ZM12.9546 4.42857H19.8118V-3.57143H12.9546V4.42857ZM15.8118 0.428574V7.28571H23.8118V0.428574H15.8118ZM19.8118 3.28571H12.9546V11.2857H19.8118V3.28571ZM16.9546 7.28571V0.428574H8.95465V7.28571H16.9546ZM19.8118 4.42857H26.6689V-3.57143H19.8118V4.42857ZM22.6689 0.428574V7.28571H30.6689V0.428574H22.6689ZM26.6689 3.28571H19.8118V11.2857H26.6689V3.28571ZM23.8118 7.28571V0.428574H15.8118V7.28571H23.8118ZM26.6689 4.42857H33.5261V-3.57143H26.6689V4.42857ZM29.5261 0.428574V7.28571H37.5261V0.428574H29.5261ZM33.5261 3.28571H26.6689V11.2857H33.5261V3.28571ZM30.6689 7.28571V0.428574H22.6689V7.28571H30.6689ZM33.5261 4.42857H40.3832V-3.57143H33.5261V4.42857ZM36.3832 0.428574V7.28571H44.3832V0.428574H36.3832ZM40.3832 3.28571H33.5261V11.2857H40.3832V3.28571ZM37.5261 7.28571V0.428574H29.5261V7.28571H37.5261ZM40.3832 4.42857H47.2404V-3.57143H40.3832V4.42857ZM43.2404 0.428574V7.28571H51.2404V0.428574H43.2404ZM47.2404 3.28571H40.3832V11.2857H47.2404V3.28571ZM44.3832 7.28571V0.428574H36.3832V7.28571H44.3832ZM40.3832 11.2857H47.2404V3.28571H40.3832V11.2857ZM43.2404 7.28571V14.1429H51.2404V7.28571H43.2404ZM47.2404 10.1429H40.3832V18.1429H47.2404V10.1429ZM44.3832 14.1429V7.28571H36.3832V14.1429H44.3832ZM33.5261 11.2857H40.3832V3.28571H33.5261V11.2857ZM36.3832 7.28571V14.1429H44.3832V7.28571H36.3832ZM40.3832 10.1429H33.5261V18.1429H40.3832V10.1429ZM37.5261 14.1429V7.28571H29.5261V14.1429H37.5261ZM26.6689 11.2857H33.5261V3.28571H26.6689V11.2857ZM29.5261 7.28571V14.1429H37.5261V7.28571H29.5261ZM33.5261 10.1429H26.6689V18.1429H33.5261V10.1429ZM30.6689 14.1429V7.28571H22.6689V14.1429H30.6689ZM19.8118 11.2857H26.6689V3.28571H19.8118V11.2857ZM22.6689 7.28571V14.1429H30.6689V7.28571H22.6689ZM26.6689 10.1429H19.8118V18.1429H26.6689V10.1429ZM23.8118 14.1429V7.28571H15.8118V14.1429H23.8118ZM12.9546 11.2857H19.8118V3.28571H12.9546V11.2857ZM15.8118 7.28571V14.1429H23.8118V7.28571H15.8118ZM19.8118 10.1429H12.9546V18.1429H19.8118V10.1429ZM16.9546 14.1429V7.28571H8.95465V14.1429H16.9546ZM6.0975 11.2857H12.9546V3.28571H6.0975V11.2857ZM8.95465 7.28571V14.1429H16.9546V7.28571H8.95465ZM12.9546 10.1429H6.0975V18.1429H12.9546V10.1429ZM10.0975 14.1429V7.28571H2.0975V14.1429H10.0975ZM19.8118 18.1429H26.6689V10.1429H19.8118V18.1429ZM22.6689 14.1429V21H30.6689V14.1429H22.6689ZM26.6689 17H19.8118V25H26.6689V17ZM23.8118 21V14.1429H15.8118V21H23.8118ZM19.8118 25H26.6689V17H19.8118V25ZM22.6689 21V27.8571H30.6689V21H22.6689ZM26.6689 23.8571H19.8118V31.8571H26.6689V23.8571ZM23.8118 27.8571V21H15.8118V27.8571H23.8118ZM19.8118 31.8571H26.6689V23.8571H19.8118V31.8571ZM22.6689 27.8571V34.7143H30.6689V27.8571H22.6689ZM26.6689 30.7143H19.8118V38.7143H26.6689V30.7143ZM23.8118 34.7143V27.8571H15.8118V34.7143H23.8118ZM19.8118 38.7143H26.6689V30.7143H19.8118V38.7143ZM22.6689 34.7143V41.5714H30.6689V34.7143H22.6689ZM26.6689 37.5714H19.8118V45.5714H26.6689V37.5714ZM23.8118 41.5714V34.7143H15.8118V41.5714H23.8118ZM19.8118 45.5714H26.6689V37.5714H19.8118V45.5714ZM22.6689 41.5714V48.4286H30.6689V41.5714H22.6689ZM26.6689 44.4286H19.8118V52.4286H26.6689V44.4286ZM23.8118 48.4286V41.5714H15.8118V48.4286H23.8118ZM19.8118 52.4286H26.6689V44.4286H19.8118V52.4286ZM22.6689 48.4286V55.2857H30.6689V48.4286H22.6689ZM26.6689 51.2857H19.8118V59.2857H26.6689V51.2857ZM23.8118 55.2857V48.4286H15.8118V55.2857H23.8118ZM26.6689 45.5714H33.5261V37.5714H26.6689V45.5714ZM29.5261 41.5714V48.4286H37.5261V41.5714H29.5261ZM33.5261 44.4286H26.6689V52.4286H33.5261V44.4286ZM30.6689 48.4286V41.5714H22.6689V48.4286H30.6689ZM26.6689 38.7143H33.5261V30.7143H26.6689V38.7143ZM29.5261 34.7143V41.5714H37.5261V34.7143H29.5261ZM33.5261 37.5714H26.6689V45.5714H33.5261V37.5714ZM30.6689 41.5714V34.7143H22.6689V41.5714H30.6689ZM26.6689 31.8571H33.5261V23.8571H26.6689V31.8571ZM29.5261 27.8571V34.7143H37.5261V27.8571H29.5261ZM33.5261 30.7143H26.6689V38.7143H33.5261V30.7143ZM30.6689 34.7143V27.8571H22.6689V34.7143H30.6689ZM26.6689 25H33.5261V17H26.6689V25ZM29.5261 21V27.8571H37.5261V21H29.5261ZM33.5261 23.8571H26.6689V31.8571H33.5261V23.8571ZM30.6689 27.8571V21H22.6689V27.8571H30.6689ZM26.6689 18.1429H33.5261V10.1429H26.6689V18.1429ZM29.5261 14.1429V21H37.5261V14.1429H29.5261ZM33.5261 17H26.6689V25H33.5261V17ZM30.6689 21V14.1429H22.6689V21H30.6689ZM26.6689 52.4286H33.5261V44.4286H26.6689V52.4286ZM29.5261 48.4286V55.2857H37.5261V48.4286H29.5261ZM33.5261 51.2857H26.6689V59.2857H33.5261V51.2857ZM30.6689 55.2857V48.4286H22.6689V55.2857H30.6689ZM26.6689 59.2857H33.5261V51.2857H26.6689V59.2857ZM29.5261 55.2857V62.1429H37.5261V55.2857H29.5261ZM33.5261 58.1429H26.6689V66.1429H33.5261V58.1429ZM30.6689 62.1429V55.2857H22.6689V62.1429H30.6689ZM26.6689 66.1429H33.5261V58.1429H26.6689V66.1429ZM29.5261 62.1429V69H37.5261V62.1429H29.5261ZM33.5261 65H26.6689V73H33.5261V65ZM30.6689 69V62.1429H22.6689V69H30.6689ZM19.8118 66.1429H26.6689V58.1429H19.8118V66.1429ZM22.6689 62.1429V69H30.6689V62.1429H22.6689ZM26.6689 65H19.8118V73H26.6689V65ZM23.8118 69V62.1429H15.8118V69H23.8118ZM19.8118 59.2857H26.6689V51.2857H19.8118V59.2857ZM22.6689 55.2857V62.1429H30.6689V55.2857H22.6689ZM26.6689 58.1429H19.8118V66.1429H26.6689V58.1429ZM23.8118 62.1429V55.2857H15.8118V62.1429H23.8118ZM55.3775 14.1429V10.1429H51.3775V14.1429H55.3775ZM62.2346 14.1429H66.2346V10.1429H62.2346V14.1429ZM62.2346 21V25H66.2346V21H62.2346ZM55.3775 21H51.3775V25H55.3775V21ZM62.2346 14.1429V10.1429H58.2346V14.1429H62.2346ZM69.0918 14.1429H73.0918V10.1429H69.0918V14.1429ZM69.0918 21V25H73.0918V21H69.0918ZM62.2346 21H58.2346V25H62.2346V21ZM62.2346 21V17H58.2346V21H62.2346ZM69.0918 21H73.0918V17H69.0918V21ZM69.0918 27.8571V31.8571H73.0918V27.8571H69.0918ZM62.2346 27.8571H58.2346V31.8571H62.2346V27.8571ZM62.2346 27.8571V23.8571H58.2346V27.8571H62.2346ZM69.0918 27.8571H73.0918V23.8571H69.0918V27.8571ZM69.0918 34.7143V38.7143H73.0918V34.7143H69.0918ZM62.2346 34.7143H58.2346V38.7143H62.2346V34.7143ZM62.2346 34.7143V30.7143H58.2346V34.7143H62.2346ZM69.0918 34.7143H73.0918V30.7143H69.0918V34.7143ZM69.0918 41.5714V45.5714H73.0918V41.5714H69.0918ZM62.2346 41.5714H58.2346V45.5714H62.2346V41.5714ZM55.3775 27.8571V23.8571H51.3775V27.8571H55.3775ZM62.2346 27.8571H66.2346V23.8571H62.2346V27.8571ZM62.2346 34.7143V38.7143H66.2346V34.7143H62.2346ZM55.3775 34.7143H51.3775V38.7143H55.3775V34.7143ZM55.3775 21V17H51.3775V21H55.3775ZM62.2346 21H66.2346V17H62.2346V21ZM62.2346 27.8571V31.8571H66.2346V27.8571H62.2346ZM55.3775 27.8571H51.3775V31.8571H55.3775V27.8571ZM55.3775 34.7143V30.7143H51.3775V34.7143H55.3775ZM62.2346 34.7143H66.2346V30.7143H62.2346V34.7143ZM62.2346 41.5714V45.5714H66.2346V41.5714H62.2346ZM55.3775 41.5714H51.3775V45.5714H55.3775V41.5714ZM55.3775 41.5714V37.5714H51.3775V41.5714H55.3775ZM62.2346 41.5714H66.2346V37.5714H62.2346V41.5714ZM62.2346 48.4286V52.4286H66.2346V48.4286H62.2346ZM55.3775 48.4286H51.3775V52.4286H55.3775V48.4286ZM62.2346 41.5714V37.5714H58.2346V41.5714H62.2346ZM69.0918 41.5714H73.0918V37.5714H69.0918V41.5714ZM69.0918 48.4286V52.4286H73.0918V48.4286H69.0918ZM62.2346 48.4286H58.2346V52.4286H62.2346V48.4286ZM62.2346 48.4286V44.4286H58.2346V48.4286H62.2346ZM69.0918 48.4286H73.0918V44.4286H69.0918V48.4286ZM69.0918 55.2857V59.2857H73.0918V55.2857H69.0918ZM62.2346 55.2857H58.2346V59.2857H62.2346V55.2857ZM69.0918 48.4286V44.4286H65.0918V48.4286H69.0918ZM75.9489 48.4286H79.9489V44.4286H75.9489V48.4286ZM75.9489 55.2857V59.2857H79.9489V55.2857H75.9489ZM69.0918 55.2857H65.0918V59.2857H69.0918V55.2857ZM69.0918 55.2857V51.2857H65.0918V55.2857H69.0918ZM75.9489 55.2857H79.9489V51.2857H75.9489V55.2857ZM75.9489 62.1429V66.1429H79.9489V62.1429H75.9489ZM69.0918 62.1429H65.0918V66.1429H69.0918V62.1429ZM75.9489 55.2857V51.2857H71.9489V55.2857H75.9489ZM82.8061 55.2857H86.8061V51.2857H82.8061V55.2857ZM82.8061 62.1429V66.1429H86.8061V62.1429H82.8061ZM75.9489 62.1429H71.9489V66.1429H75.9489V62.1429ZM82.8061 55.2857V51.2857H78.8061V55.2857H82.8061ZM89.6632 55.2857H93.6632V51.2857H89.6632V55.2857ZM89.6632 62.1429V66.1429H93.6632V62.1429H89.6632ZM82.8061 62.1429H78.8061V66.1429H82.8061V62.1429ZM82.8061 48.4286V44.4286H78.8061V48.4286H82.8061ZM89.6632 48.4286H93.6632V44.4286H89.6632V48.4286ZM89.6632 55.2857V59.2857H93.6632V55.2857H89.6632ZM82.8061 55.2857H78.8061V59.2857H82.8061V55.2857ZM82.8061 41.5714V37.5714H78.8061V41.5714H82.8061ZM89.6632 41.5714H93.6632V37.5714H89.6632V41.5714ZM89.6632 48.4286V52.4286H93.6632V48.4286H89.6632ZM82.8061 48.4286H78.8061V52.4286H82.8061V48.4286ZM89.6632 41.5714V37.5714H85.6632V41.5714H89.6632ZM96.5204 41.5714H100.52V37.5714H96.5204V41.5714ZM96.5204 48.4286V52.4286H100.52V48.4286H96.5204ZM89.6632 48.4286H85.6632V52.4286H89.6632V48.4286ZM89.6632 48.4286V44.4286H85.6632V48.4286H89.6632ZM96.5204 48.4286H100.52V44.4286H96.5204V48.4286ZM96.5204 55.2857V59.2857H100.52V55.2857H96.5204ZM89.6632 55.2857H85.6632V59.2857H89.6632V55.2857ZM89.6632 34.7143V30.7143H85.6632V34.7143H89.6632ZM96.5204 34.7143H100.52V30.7143H96.5204V34.7143ZM96.5204 41.5714V45.5714H100.52V41.5714H96.5204ZM89.6632 41.5714H85.6632V45.5714H89.6632V41.5714ZM82.8061 34.7143V30.7143H78.8061V34.7143H82.8061ZM89.6632 34.7143H93.6632V30.7143H89.6632V34.7143ZM89.6632 41.5714V45.5714H93.6632V41.5714H89.6632ZM82.8061 41.5714H78.8061V45.5714H82.8061V41.5714ZM82.8061 14.1429V10.1429H78.8061V14.1429H82.8061ZM89.6632 14.1429H93.6632V10.1429H89.6632V14.1429ZM89.6632 21V25H93.6632V21H89.6632ZM82.8061 21H78.8061V25H82.8061V21ZM89.6632 14.1429V10.1429H85.6632V14.1429H89.6632ZM96.5204 14.1429H100.52V10.1429H96.5204V14.1429ZM96.5204 21V25H100.52V21H96.5204ZM89.6632 21H85.6632V25H89.6632V21ZM89.6632 21V17H85.6632V21H89.6632ZM96.5204 21H100.52V17H96.5204V21ZM96.5204 27.8571V31.8571H100.52V27.8571H96.5204ZM89.6632 27.8571H85.6632V31.8571H89.6632V27.8571ZM89.6632 27.8571V23.8571H85.6632V27.8571H89.6632ZM96.5204 27.8571H100.52V23.8571H96.5204V27.8571ZM96.5204 34.7143V38.7143H100.52V34.7143H96.5204ZM89.6632 34.7143H85.6632V38.7143H89.6632V34.7143ZM82.8061 21V17H78.8061V21H82.8061ZM89.6632 21H93.6632V17H89.6632V21ZM89.6632 27.8571V31.8571H93.6632V27.8571H89.6632ZM82.8061 27.8571H78.8061V31.8571H82.8061V27.8571ZM82.8061 27.8571V23.8571H78.8061V27.8571H82.8061ZM89.6632 27.8571H93.6632V23.8571H89.6632V27.8571ZM89.6632 34.7143V38.7143H93.6632V34.7143H89.6632ZM82.8061 34.7143H78.8061V38.7143H82.8061V34.7143ZM75.9489 62.1429V58.1429H71.9489V62.1429H75.9489ZM82.8061 62.1429H86.8061V58.1429H82.8061V62.1429ZM82.8061 69V73H86.8061V69H82.8061ZM75.9489 69H71.9489V73H75.9489V69ZM69.0918 62.1429V58.1429H65.0918V62.1429H69.0918ZM75.9489 62.1429H79.9489V58.1429H75.9489V62.1429ZM75.9489 69V73H79.9489V69H75.9489ZM69.0918 69H65.0918V73H69.0918V69ZM69.0918 69V65H65.0918V69H69.0918ZM75.9489 69H79.9489V65H75.9489V69ZM75.9489 75.8571V79.8571H79.9489V75.8571H75.9489ZM69.0918 75.8571H65.0918V79.8571H69.0918V75.8571ZM62.2346 69V65H58.2346V69H62.2346ZM69.0918 69H73.0918V65H69.0918V69ZM69.0918 75.8571V79.8571H73.0918V75.8571H69.0918ZM62.2346 75.8571H58.2346V79.8571H62.2346V75.8571ZM62.2346 62.1429V58.1429H58.2346V62.1429H62.2346ZM69.0918 62.1429H73.0918V58.1429H69.0918V62.1429ZM69.0918 69V73H73.0918V69H69.0918ZM62.2346 69H58.2346V73H62.2346V69ZM62.2346 75.8571V71.8571H58.2346V75.8571H62.2346ZM69.0918 75.8571H73.0918V71.8571H69.0918V75.8571ZM69.0918 82.7143V86.7143H73.0918V82.7143H69.0918ZM62.2346 82.7143H58.2346V86.7143H62.2346V82.7143ZM55.3775 75.8571V71.8571H51.3775V75.8571H55.3775ZM62.2346 75.8571H66.2346V71.8571H62.2346V75.8571ZM62.2346 82.7143V86.7143H66.2346V82.7143H62.2346ZM55.3775 82.7143H51.3775V86.7143H55.3775V82.7143ZM55.3775 69V65H51.3775V69H55.3775ZM62.2346 69H66.2346V65H62.2346V69ZM62.2346 75.8571V79.8571H66.2346V75.8571H62.2346ZM55.3775 75.8571H51.3775V79.8571H55.3775V75.8571ZM75.9489 48.4286V44.4286H71.9489V48.4286H75.9489ZM82.8061 48.4286H86.8061V44.4286H82.8061V48.4286ZM82.8061 55.2857V59.2857H86.8061V55.2857H82.8061ZM75.9489 55.2857H71.9489V59.2857H75.9489V55.2857ZM69.0918 41.5714V37.5714H65.0918V41.5714H69.0918ZM75.9489 41.5714H79.9489V37.5714H75.9489V41.5714ZM75.9489 48.4286V52.4286H79.9489V48.4286H75.9489ZM69.0918 48.4286H65.0918V52.4286H69.0918V48.4286ZM55.3775 18.1429H62.2346V10.1429H55.3775V18.1429ZM58.2346 14.1429V21H66.2346V14.1429H58.2346ZM62.2346 17H55.3775V25H62.2346V17ZM59.3775 21V14.1429H51.3775V21H59.3775ZM62.2346 18.1429H69.0918V10.1429H62.2346V18.1429ZM65.0918 14.1429V21H73.0918V14.1429H65.0918ZM69.0918 17H62.2346V25H69.0918V17ZM66.2346 21V14.1429H58.2346V21H66.2346ZM62.2346 25H69.0918V17H62.2346V25ZM65.0918 21V27.8571H73.0918V21H65.0918ZM69.0918 23.8571H62.2346V31.8571H69.0918V23.8571ZM66.2346 27.8571V21H58.2346V27.8571H66.2346ZM62.2346 31.8571H69.0918V23.8571H62.2346V31.8571ZM65.0918 27.8571V34.7143H73.0918V27.8571H65.0918ZM69.0918 30.7143H62.2346V38.7143H69.0918V30.7143ZM66.2346 34.7143V27.8571H58.2346V34.7143H66.2346ZM62.2346 38.7143H69.0918V30.7143H62.2346V38.7143ZM65.0918 34.7143V41.5714H73.0918V34.7143H65.0918ZM69.0918 37.5714H62.2346V45.5714H69.0918V37.5714ZM66.2346 41.5714V34.7143H58.2346V41.5714H66.2346ZM55.3775 31.8571H62.2346V23.8571H55.3775V31.8571ZM58.2346 27.8571V34.7143H66.2346V27.8571H58.2346ZM62.2346 30.7143H55.3775V38.7143H62.2346V30.7143ZM59.3775 34.7143V27.8571H51.3775V34.7143H59.3775ZM55.3775 25H62.2346V17H55.3775V25ZM58.2346 21V27.8571H66.2346V21H58.2346ZM62.2346 23.8571H55.3775V31.8571H62.2346V23.8571ZM59.3775 27.8571V21H51.3775V27.8571H59.3775ZM55.3775 38.7143H62.2346V30.7143H55.3775V38.7143ZM58.2346 34.7143V41.5714H66.2346V34.7143H58.2346ZM62.2346 37.5714H55.3775V45.5714H62.2346V37.5714ZM59.3775 41.5714V34.7143H51.3775V41.5714H59.3775ZM55.3775 45.5714H62.2346V37.5714H55.3775V45.5714ZM58.2346 41.5714V48.4286H66.2346V41.5714H58.2346ZM62.2346 44.4286H55.3775V52.4286H62.2346V44.4286ZM59.3775 48.4286V41.5714H51.3775V48.4286H59.3775ZM62.2346 45.5714H69.0918V37.5714H62.2346V45.5714ZM65.0918 41.5714V48.4286H73.0918V41.5714H65.0918ZM69.0918 44.4286H62.2346V52.4286H69.0918V44.4286ZM66.2346 48.4286V41.5714H58.2346V48.4286H66.2346ZM62.2346 52.4286H69.0918V44.4286H62.2346V52.4286ZM65.0918 48.4286V55.2857H73.0918V48.4286H65.0918ZM69.0918 51.2857H62.2346V59.2857H69.0918V51.2857ZM66.2346 55.2857V48.4286H58.2346V55.2857H66.2346ZM69.0918 52.4286H75.9489V44.4286H69.0918V52.4286ZM71.9489 48.4286V55.2857H79.9489V48.4286H71.9489ZM75.9489 51.2857H69.0918V59.2857H75.9489V51.2857ZM73.0918 55.2857V48.4286H65.0918V55.2857H73.0918ZM69.0918 59.2857H75.9489V51.2857H69.0918V59.2857ZM71.9489 55.2857V62.1429H79.9489V55.2857H71.9489ZM75.9489 58.1429H69.0918V66.1429H75.9489V58.1429ZM73.0918 62.1429V55.2857H65.0918V62.1429H73.0918ZM75.9489 59.2857H82.8061V51.2857H75.9489V59.2857ZM78.8061 55.2857V62.1429H86.8061V55.2857H78.8061ZM82.8061 58.1429H75.9489V66.1429H82.8061V58.1429ZM79.9489 62.1429V55.2857H71.9489V62.1429H79.9489ZM82.8061 59.2857H89.6632V51.2857H82.8061V59.2857ZM85.6632 55.2857V62.1429H93.6632V55.2857H85.6632ZM89.6632 58.1429H82.8061V66.1429H89.6632V58.1429ZM86.8061 62.1429V55.2857H78.8061V62.1429H86.8061ZM82.8061 52.4286H89.6632V44.4286H82.8061V52.4286ZM85.6632 48.4286V55.2857H93.6632V48.4286H85.6632ZM89.6632 51.2857H82.8061V59.2857H89.6632V51.2857ZM86.8061 55.2857V48.4286H78.8061V55.2857H86.8061ZM82.8061 45.5714H89.6632V37.5714H82.8061V45.5714ZM85.6632 41.5714V48.4286H93.6632V41.5714H85.6632ZM89.6632 44.4286H82.8061V52.4286H89.6632V44.4286ZM86.8061 48.4286V41.5714H78.8061V48.4286H86.8061ZM89.6632 45.5714H96.5204V37.5714H89.6632V45.5714ZM92.5204 41.5714V48.4286H100.52V41.5714H92.5204ZM96.5204 44.4286H89.6632V52.4286H96.5204V44.4286ZM93.6632 48.4286V41.5714H85.6632V48.4286H93.6632ZM89.6632 52.4286H96.5204V44.4286H89.6632V52.4286ZM92.5204 48.4286V55.2857H100.52V48.4286H92.5204ZM96.5204 51.2857H89.6632V59.2857H96.5204V51.2857ZM93.6632 55.2857V48.4286H85.6632V55.2857H93.6632ZM89.6632 38.7143H96.5204V30.7143H89.6632V38.7143ZM92.5204 34.7143V41.5714H100.52V34.7143H92.5204ZM96.5204 37.5714H89.6632V45.5714H96.5204V37.5714ZM93.6632 41.5714V34.7143H85.6632V41.5714H93.6632ZM82.8061 38.7143H89.6632V30.7143H82.8061V38.7143ZM85.6632 34.7143V41.5714H93.6632V34.7143H85.6632ZM89.6632 37.5714H82.8061V45.5714H89.6632V37.5714ZM86.8061 41.5714V34.7143H78.8061V41.5714H86.8061ZM82.8061 18.1429H89.6632V10.1429H82.8061V18.1429ZM85.6632 14.1429V21H93.6632V14.1429H85.6632ZM89.6632 17H82.8061V25H89.6632V17ZM86.8061 21V14.1429H78.8061V21H86.8061ZM89.6632 18.1429H96.5204V10.1429H89.6632V18.1429ZM92.5204 14.1429V21H100.52V14.1429H92.5204ZM96.5204 17H89.6632V25H96.5204V17ZM93.6632 21V14.1429H85.6632V21H93.6632ZM89.6632 25H96.5204V17H89.6632V25ZM92.5204 21V27.8571H100.52V21H92.5204ZM96.5204 23.8571H89.6632V31.8571H96.5204V23.8571ZM93.6632 27.8571V21H85.6632V27.8571H93.6632ZM89.6632 31.8571H96.5204V23.8571H89.6632V31.8571ZM92.5204 27.8571V34.7143H100.52V27.8571H92.5204ZM96.5204 30.7143H89.6632V38.7143H96.5204V30.7143ZM93.6632 34.7143V27.8571H85.6632V34.7143H93.6632ZM82.8061 25H89.6632V17H82.8061V25ZM85.6632 21V27.8571H93.6632V21H85.6632ZM89.6632 23.8571H82.8061V31.8571H89.6632V23.8571ZM86.8061 27.8571V21H78.8061V27.8571H86.8061ZM82.8061 31.8571H89.6632V23.8571H82.8061V31.8571ZM85.6632 27.8571V34.7143H93.6632V27.8571H85.6632ZM89.6632 30.7143H82.8061V38.7143H89.6632V30.7143ZM86.8061 34.7143V27.8571H78.8061V34.7143H86.8061ZM75.9489 66.1429H82.8061V58.1429H75.9489V66.1429ZM78.8061 62.1429V69H86.8061V62.1429H78.8061ZM82.8061 65H75.9489V73H82.8061V65ZM79.9489 69V62.1429H71.9489V69H79.9489ZM69.0918 66.1429H75.9489V58.1429H69.0918V66.1429ZM71.9489 62.1429V69H79.9489V62.1429H71.9489ZM75.9489 65H69.0918V73H75.9489V65ZM73.0918 69V62.1429H65.0918V69H73.0918ZM69.0918 73H75.9489V65H69.0918V73ZM71.9489 69V75.8571H79.9489V69H71.9489ZM75.9489 71.8571H69.0918V79.8571H75.9489V71.8571ZM73.0918 75.8571V69H65.0918V75.8571H73.0918ZM62.2346 73H69.0918V65H62.2346V73ZM65.0918 69V75.8571H73.0918V69H65.0918ZM69.0918 71.8571H62.2346V79.8571H69.0918V71.8571ZM66.2346 75.8571V69H58.2346V75.8571H66.2346ZM62.2346 66.1429H69.0918V58.1429H62.2346V66.1429ZM65.0918 62.1429V69H73.0918V62.1429H65.0918ZM69.0918 65H62.2346V73H69.0918V65ZM66.2346 69V62.1429H58.2346V69H66.2346ZM62.2346 79.8571H69.0918V71.8571H62.2346V79.8571ZM65.0918 75.8571V82.7143H73.0918V75.8571H65.0918ZM69.0918 78.7143H62.2346V86.7143H69.0918V78.7143ZM66.2346 82.7143V75.8571H58.2346V82.7143H66.2346ZM55.3775 79.8571H62.2346V71.8571H55.3775V79.8571ZM58.2346 75.8571V82.7143H66.2346V75.8571H58.2346ZM62.2346 78.7143H55.3775V86.7143H62.2346V78.7143ZM59.3775 82.7143V75.8571H51.3775V82.7143H59.3775ZM55.3775 73H62.2346V65H55.3775V73ZM58.2346 69V75.8571H66.2346V69H58.2346ZM62.2346 71.8571H55.3775V79.8571H62.2346V71.8571ZM59.3775 75.8571V69H51.3775V75.8571H59.3775ZM75.9489 52.4286H82.8061V44.4286H75.9489V52.4286ZM78.8061 48.4286V55.2857H86.8061V48.4286H78.8061ZM82.8061 51.2857H75.9489V59.2857H82.8061V51.2857ZM79.9489 55.2857V48.4286H71.9489V55.2857H79.9489ZM69.0918 45.5714H75.9489V37.5714H69.0918V45.5714ZM71.9489 41.5714V48.4286H79.9489V41.5714H71.9489ZM75.9489 44.4286H69.0918V52.4286H75.9489V44.4286ZM73.0918 48.4286V41.5714H65.0918V48.4286H73.0918ZM118.372 14.1429V10.1429H114.372V14.1429H118.372ZM125.229 14.1429H129.229V10.1429H125.229V14.1429ZM125.229 21V25H129.229V21H125.229ZM118.372 21H114.372V25H118.372V21ZM111.515 14.1429V10.1429H107.515V14.1429H111.515ZM118.372 14.1429H122.372V10.1429H118.372V14.1429ZM118.372 21V25H122.372V21H118.372ZM111.515 21H107.515V25H111.515V21ZM111.515 21V17H107.515V21H111.515ZM118.372 21H122.372V17H118.372V21ZM118.372 27.8571V31.8571H122.372V27.8571H118.372ZM111.515 27.8571H107.515V31.8571H111.515V27.8571ZM118.372 21V17H114.372V21H118.372ZM125.229 21H129.229V17H125.229V21ZM125.229 27.8571V31.8571H129.229V27.8571H125.229ZM118.372 27.8571H114.372V31.8571H118.372V27.8571ZM125.229 14.1429V10.1429H121.229V14.1429H125.229ZM132.086 14.1429H136.086V10.1429H132.086V14.1429ZM132.086 21V25H136.086V21H132.086ZM125.229 21H121.229V25H125.229V21ZM132.086 14.1429V10.1429H128.086V14.1429H132.086ZM138.943 14.1429H142.943V10.1429H138.943V14.1429ZM138.943 21V25H142.943V21H138.943ZM132.086 21H128.086V25H132.086V21ZM138.943 14.1429V10.1429H134.943V14.1429H138.943ZM145.8 14.1429H149.8V10.1429H145.8V14.1429ZM145.8 21V25H149.8V21H145.8ZM138.943 21H134.943V25H138.943V21ZM138.943 21V17H134.943V21H138.943ZM145.8 21H149.8V17H145.8V21ZM145.8 27.8571V31.8571H149.8V27.8571H145.8ZM138.943 27.8571H134.943V31.8571H138.943V27.8571ZM132.086 21V17H128.086V21H132.086ZM138.943 21H142.943V17H138.943V21ZM138.943 27.8571V31.8571H142.943V27.8571H138.943ZM132.086 27.8571H128.086V31.8571H132.086V27.8571ZM145.8 21V17H141.8V21H145.8ZM152.658 21H156.658V17H152.658V21ZM152.658 27.8571V31.8571H156.658V27.8571H152.658ZM145.8 27.8571H141.8V31.8571H145.8V27.8571ZM145.8 27.8571V23.8571H141.8V27.8571H145.8ZM152.658 27.8571H156.658V23.8571H152.658V27.8571ZM152.658 34.7143V38.7143H156.658V34.7143H152.658ZM145.8 34.7143H141.8V38.7143H145.8V34.7143ZM145.8 48.4286V44.4286H141.8V48.4286H145.8ZM152.658 48.4286H156.658V44.4286H152.658V48.4286ZM152.658 55.2857V59.2857H156.658V55.2857H152.658ZM145.8 55.2857H141.8V59.2857H145.8V55.2857ZM145.8 55.2857V51.2857H141.8V55.2857H145.8ZM152.658 55.2857H156.658V51.2857H152.658V55.2857ZM152.658 62.1429V66.1429H156.658V62.1429H152.658ZM145.8 62.1429H141.8V66.1429H145.8V62.1429ZM138.943 55.2857V51.2857H134.943V55.2857H138.943ZM145.8 55.2857H149.8V51.2857H145.8V55.2857ZM145.8 62.1429V66.1429H149.8V62.1429H145.8ZM138.943 62.1429H134.943V66.1429H138.943V62.1429ZM138.943 48.4286V44.4286H134.943V48.4286H138.943ZM145.8 48.4286H149.8V44.4286H145.8V48.4286ZM145.8 55.2857V59.2857H149.8V55.2857H145.8ZM138.943 55.2857H134.943V59.2857H138.943V55.2857ZM138.943 27.8571V23.8571H134.943V27.8571H138.943ZM145.8 27.8571H149.8V23.8571H145.8V27.8571ZM145.8 34.7143V38.7143H149.8V34.7143H145.8ZM138.943 34.7143H134.943V38.7143H138.943V34.7143ZM132.086 55.2857V51.2857H128.086V55.2857H132.086ZM138.943 55.2857H142.943V51.2857H138.943V55.2857ZM138.943 62.1429V66.1429H142.943V62.1429H138.943ZM132.086 62.1429H128.086V66.1429H132.086V62.1429ZM138.943 62.1429V58.1429H134.943V62.1429H138.943ZM145.8 62.1429H149.8V58.1429H145.8V62.1429ZM145.8 69V73H149.8V69H145.8ZM138.943 69H134.943V73H138.943V69ZM132.086 62.1429V58.1429H128.086V62.1429H132.086ZM138.943 62.1429H142.943V58.1429H138.943V62.1429ZM138.943 69V73H142.943V69H138.943ZM132.086 69H128.086V73H132.086V69ZM125.229 62.1429V58.1429H121.229V62.1429H125.229ZM132.086 62.1429H136.086V58.1429H132.086V62.1429ZM132.086 69V73H136.086V69H132.086ZM125.229 69H121.229V73H125.229V69ZM118.372 62.1429V58.1429H114.372V62.1429H118.372ZM125.229 62.1429H129.229V58.1429H125.229V62.1429ZM125.229 69V73H129.229V69H125.229ZM118.372 69H114.372V73H118.372V69ZM111.515 62.1429V58.1429H107.515V62.1429H111.515ZM118.372 62.1429H122.372V58.1429H118.372V62.1429ZM118.372 69V73H122.372V69H118.372ZM111.515 69H107.515V73H111.515V69ZM111.515 55.2857V51.2857H107.515V55.2857H111.515ZM118.372 55.2857H122.372V51.2857H118.372V55.2857ZM118.372 62.1429V66.1429H122.372V62.1429H118.372ZM111.515 62.1429H107.515V66.1429H111.515V62.1429ZM118.372 55.2857V51.2857H114.372V55.2857H118.372ZM125.229 55.2857H129.229V51.2857H125.229V55.2857ZM125.229 62.1429V66.1429H129.229V62.1429H125.229ZM118.372 62.1429H114.372V66.1429H118.372V62.1429ZM111.515 48.4286V44.4286H107.515V48.4286H111.515ZM118.372 48.4286H122.372V44.4286H118.372V48.4286ZM118.372 55.2857V59.2857H122.372V55.2857H118.372ZM111.515 55.2857H107.515V59.2857H111.515V55.2857ZM104.658 55.2857V51.2857H100.658V55.2857H104.658ZM111.515 55.2857H115.515V51.2857H111.515V55.2857ZM111.515 62.1429V66.1429H115.515V62.1429H111.515ZM104.658 62.1429H100.658V66.1429H104.658V62.1429ZM104.658 48.4286V44.4286H100.658V48.4286H104.658ZM111.515 48.4286H115.515V44.4286H111.515V48.4286ZM111.515 55.2857V59.2857H115.515V55.2857H111.515ZM104.658 55.2857H100.658V59.2857H104.658V55.2857ZM104.658 41.5714V37.5714H100.658V41.5714H104.658ZM111.515 41.5714H115.515V37.5714H111.515V41.5714ZM111.515 48.4286V52.4286H115.515V48.4286H111.515ZM104.658 48.4286H100.658V52.4286H104.658V48.4286ZM104.658 34.7143V30.7143H100.658V34.7143H104.658ZM111.515 34.7143H115.515V30.7143H111.515V34.7143ZM111.515 41.5714V45.5714H115.515V41.5714H111.515ZM104.658 41.5714H100.658V45.5714H104.658V41.5714ZM104.658 27.8571V23.8571H100.658V27.8571H104.658ZM111.515 27.8571H115.515V23.8571H111.515V27.8571ZM111.515 34.7143V38.7143H115.515V34.7143H111.515ZM104.658 34.7143H100.658V38.7143H104.658V34.7143ZM104.658 21V17H100.658V21H104.658ZM111.515 21H115.515V17H111.515V21ZM111.515 27.8571V31.8571H115.515V27.8571H111.515ZM104.658 27.8571H100.658V31.8571H104.658V27.8571ZM111.515 27.8571V23.8571H107.515V27.8571H111.515ZM118.372 27.8571H122.372V23.8571H118.372V27.8571ZM118.372 34.7143V38.7143H122.372V34.7143H118.372ZM111.515 34.7143H107.515V38.7143H111.515V34.7143ZM111.515 34.7143V30.7143H107.515V34.7143H111.515ZM118.372 34.7143H122.372V30.7143H118.372V34.7143ZM118.372 41.5714V45.5714H122.372V41.5714H118.372ZM111.515 41.5714H107.515V45.5714H111.515V41.5714ZM111.515 41.5714V37.5714H107.515V41.5714H111.515ZM118.372 41.5714H122.372V37.5714H118.372V41.5714ZM118.372 48.4286V52.4286H122.372V48.4286H118.372ZM111.515 48.4286H107.515V52.4286H111.515V48.4286ZM125.229 55.2857V51.2857H121.229V55.2857H125.229ZM132.086 55.2857H136.086V51.2857H132.086V55.2857ZM132.086 62.1429V66.1429H136.086V62.1429H132.086ZM125.229 62.1429H121.229V66.1429H125.229V62.1429ZM125.229 21V17H121.229V21H125.229ZM132.086 21H136.086V17H132.086V21ZM132.086 27.8571V31.8571H136.086V27.8571H132.086ZM125.229 27.8571H121.229V31.8571H125.229V27.8571ZM118.372 18.1429H125.229V10.1429H118.372V18.1429ZM121.229 14.1429V21H129.229V14.1429H121.229ZM125.229 17H118.372V25H125.229V17ZM122.372 21V14.1429H114.372V21H122.372ZM111.515 18.1429H118.372V10.1429H111.515V18.1429ZM114.372 14.1429V21H122.372V14.1429H114.372ZM118.372 17H111.515V25H118.372V17ZM115.515 21V14.1429H107.515V21H115.515ZM111.515 25H118.372V17H111.515V25ZM114.372 21V27.8571H122.372V21H114.372ZM118.372 23.8571H111.515V31.8571H118.372V23.8571ZM115.515 27.8571V21H107.515V27.8571H115.515ZM118.372 25H125.229V17H118.372V25ZM121.229 21V27.8571H129.229V21H121.229ZM125.229 23.8571H118.372V31.8571H125.229V23.8571ZM122.372 27.8571V21H114.372V27.8571H122.372ZM125.229 18.1429H132.086V10.1429H125.229V18.1429ZM128.086 14.1429V21H136.086V14.1429H128.086ZM132.086 17H125.229V25H132.086V17ZM129.229 21V14.1429H121.229V21H129.229ZM132.086 18.1429H138.943V10.1429H132.086V18.1429ZM134.943 14.1429V21H142.943V14.1429H134.943ZM138.943 17H132.086V25H138.943V17ZM136.086 21V14.1429H128.086V21H136.086ZM138.943 18.1429H145.8V10.1429H138.943V18.1429ZM141.8 14.1429V21H149.8V14.1429H141.8ZM145.8 17H138.943V25H145.8V17ZM142.943 21V14.1429H134.943V21H142.943ZM138.943 25H145.8V17H138.943V25ZM141.8 21V27.8571H149.8V21H141.8ZM145.8 23.8571H138.943V31.8571H145.8V23.8571ZM142.943 27.8571V21H134.943V27.8571H142.943ZM132.086 25H138.943V17H132.086V25ZM134.943 21V27.8571H142.943V21H134.943ZM138.943 23.8571H132.086V31.8571H138.943V23.8571ZM136.086 27.8571V21H128.086V27.8571H136.086ZM145.8 25H152.658V17H145.8V25ZM148.658 21V27.8571H156.658V21H148.658ZM152.658 23.8571H145.8V31.8571H152.658V23.8571ZM149.8 27.8571V21H141.8V27.8571H149.8ZM145.8 31.8571H152.658V23.8571H145.8V31.8571ZM148.658 27.8571V34.7143H156.658V27.8571H148.658ZM152.658 30.7143H145.8V38.7143H152.658V30.7143ZM149.8 34.7143V27.8571H141.8V34.7143H149.8ZM145.8 52.4286H152.658V44.4286H145.8V52.4286ZM148.658 48.4286V55.2857H156.658V48.4286H148.658ZM152.658 51.2857H145.8V59.2857H152.658V51.2857ZM149.8 55.2857V48.4286H141.8V55.2857H149.8ZM145.8 59.2857H152.658V51.2857H145.8V59.2857ZM148.658 55.2857V62.1429H156.658V55.2857H148.658ZM152.658 58.1429H145.8V66.1429H152.658V58.1429ZM149.8 62.1429V55.2857H141.8V62.1429H149.8ZM138.943 59.2857H145.8V51.2857H138.943V59.2857ZM141.8 55.2857V62.1429H149.8V55.2857H141.8ZM145.8 58.1429H138.943V66.1429H145.8V58.1429ZM142.943 62.1429V55.2857H134.943V62.1429H142.943ZM138.943 52.4286H145.8V44.4286H138.943V52.4286ZM141.8 48.4286V55.2857H149.8V48.4286H141.8ZM145.8 51.2857H138.943V59.2857H145.8V51.2857ZM142.943 55.2857V48.4286H134.943V55.2857H142.943ZM138.943 31.8571H145.8V23.8571H138.943V31.8571ZM141.8 27.8571V34.7143H149.8V27.8571H141.8ZM145.8 30.7143H138.943V38.7143H145.8V30.7143ZM142.943 34.7143V27.8571H134.943V34.7143H142.943ZM132.086 59.2857H138.943V51.2857H132.086V59.2857ZM134.943 55.2857V62.1429H142.943V55.2857H134.943ZM138.943 58.1429H132.086V66.1429H138.943V58.1429ZM136.086 62.1429V55.2857H128.086V62.1429H136.086ZM138.943 66.1429H145.8V58.1429H138.943V66.1429ZM141.8 62.1429V69H149.8V62.1429H141.8ZM145.8 65H138.943V73H145.8V65ZM142.943 69V62.1429H134.943V69H142.943ZM132.086 66.1429H138.943V58.1429H132.086V66.1429ZM134.943 62.1429V69H142.943V62.1429H134.943ZM138.943 65H132.086V73H138.943V65ZM136.086 69V62.1429H128.086V69H136.086ZM125.229 66.1429H132.086V58.1429H125.229V66.1429ZM128.086 62.1429V69H136.086V62.1429H128.086ZM132.086 65H125.229V73H132.086V65ZM129.229 69V62.1429H121.229V69H129.229ZM118.372 66.1429H125.229V58.1429H118.372V66.1429ZM121.229 62.1429V69H129.229V62.1429H121.229ZM125.229 65H118.372V73H125.229V65ZM122.372 69V62.1429H114.372V69H122.372ZM111.515 66.1429H118.372V58.1429H111.515V66.1429ZM114.372 62.1429V69H122.372V62.1429H114.372ZM118.372 65H111.515V73H118.372V65ZM115.515 69V62.1429H107.515V69H115.515ZM111.515 59.2857H118.372V51.2857H111.515V59.2857ZM114.372 55.2857V62.1429H122.372V55.2857H114.372ZM118.372 58.1429H111.515V66.1429H118.372V58.1429ZM115.515 62.1429V55.2857H107.515V62.1429H115.515ZM118.372 59.2857H125.229V51.2857H118.372V59.2857ZM121.229 55.2857V62.1429H129.229V55.2857H121.229ZM125.229 58.1429H118.372V66.1429H125.229V58.1429ZM122.372 62.1429V55.2857H114.372V62.1429H122.372ZM111.515 52.4286H118.372V44.4286H111.515V52.4286ZM114.372 48.4286V55.2857H122.372V48.4286H114.372ZM118.372 51.2857H111.515V59.2857H118.372V51.2857ZM115.515 55.2857V48.4286H107.515V55.2857H115.515ZM104.658 59.2857H111.515V51.2857H104.658V59.2857ZM107.515 55.2857V62.1429H115.515V55.2857H107.515ZM111.515 58.1429H104.658V66.1429H111.515V58.1429ZM108.658 62.1429V55.2857H100.658V62.1429H108.658ZM104.658 52.4286H111.515V44.4286H104.658V52.4286ZM107.515 48.4286V55.2857H115.515V48.4286H107.515ZM111.515 51.2857H104.658V59.2857H111.515V51.2857ZM108.658 55.2857V48.4286H100.658V55.2857H108.658ZM104.658 45.5714H111.515V37.5714H104.658V45.5714ZM107.515 41.5714V48.4286H115.515V41.5714H107.515ZM111.515 44.4286H104.658V52.4286H111.515V44.4286ZM108.658 48.4286V41.5714H100.658V48.4286H108.658ZM104.658 38.7143H111.515V30.7143H104.658V38.7143ZM107.515 34.7143V41.5714H115.515V34.7143H107.515ZM111.515 37.5714H104.658V45.5714H111.515V37.5714ZM108.658 41.5714V34.7143H100.658V41.5714H108.658ZM104.658 31.8571H111.515V23.8571H104.658V31.8571ZM107.515 27.8571V34.7143H115.515V27.8571H107.515ZM111.515 30.7143H104.658V38.7143H111.515V30.7143ZM108.658 34.7143V27.8571H100.658V34.7143H108.658ZM104.658 25H111.515V17H104.658V25ZM107.515 21V27.8571H115.515V21H107.515ZM111.515 23.8571H104.658V31.8571H111.515V23.8571ZM108.658 27.8571V21H100.658V27.8571H108.658ZM111.515 31.8571H118.372V23.8571H111.515V31.8571ZM114.372 27.8571V34.7143H122.372V27.8571H114.372ZM118.372 30.7143H111.515V38.7143H118.372V30.7143ZM115.515 34.7143V27.8571H107.515V34.7143H115.515ZM111.515 38.7143H118.372V30.7143H111.515V38.7143ZM114.372 34.7143V41.5714H122.372V34.7143H114.372ZM118.372 37.5714H111.515V45.5714H118.372V37.5714ZM115.515 41.5714V34.7143H107.515V41.5714H115.515ZM111.515 45.5714H118.372V37.5714H111.515V45.5714ZM114.372 41.5714V48.4286H122.372V41.5714H114.372ZM118.372 44.4286H111.515V52.4286H118.372V44.4286ZM115.515 48.4286V41.5714H107.515V48.4286H115.515ZM125.229 59.2857H132.086V51.2857H125.229V59.2857ZM128.086 55.2857V62.1429H136.086V55.2857H128.086ZM132.086 58.1429H125.229V66.1429H132.086V58.1429ZM129.229 62.1429V55.2857H121.229V62.1429H129.229ZM125.229 25H132.086V17H125.229V25ZM128.086 21V27.8571H136.086V21H128.086ZM132.086 23.8571H125.229V31.8571H132.086V23.8571ZM129.229 27.8571V21H121.229V27.8571H129.229ZM174.527 14.1429V10.1429H170.527V14.1429H174.527ZM181.384 14.1429H185.384V10.1429H181.384V14.1429ZM181.384 21V25H185.384V21H181.384ZM174.527 21H170.527V25H174.527V21ZM167.67 14.1429V10.1429H163.67V14.1429H167.67ZM174.527 14.1429H178.527V10.1429H174.527V14.1429ZM174.527 21V25H178.527V21H174.527ZM167.67 21H163.67V25H167.67V21ZM167.67 21V17H163.67V21H167.67ZM174.527 21H178.527V17H174.527V21ZM174.527 27.8571V31.8571H178.527V27.8571H174.527ZM167.67 27.8571H163.67V31.8571H167.67V27.8571ZM174.527 21V17H170.527V21H174.527ZM181.384 21H185.384V17H181.384V21ZM181.384 27.8571V31.8571H185.384V27.8571H181.384ZM174.527 27.8571H170.527V31.8571H174.527V27.8571ZM181.384 14.1429V10.1429H177.384V14.1429H181.384ZM188.241 14.1429H192.241V10.1429H188.241V14.1429ZM188.241 21V25H192.241V21H188.241ZM181.384 21H177.384V25H181.384V21ZM188.241 14.1429V10.1429H184.241V14.1429H188.241ZM195.098 14.1429H199.098V10.1429H195.098V14.1429ZM195.098 21V25H199.098V21H195.098ZM188.241 21H184.241V25H188.241V21ZM195.098 14.1429V10.1429H191.098V14.1429H195.098ZM201.955 14.1429H205.955V10.1429H201.955V14.1429ZM201.955 21V25H205.955V21H201.955ZM195.098 21H191.098V25H195.098V21ZM195.098 21V17H191.098V21H195.098ZM201.955 21H205.955V17H201.955V21ZM201.955 27.8571V31.8571H205.955V27.8571H201.955ZM195.098 27.8571H191.098V31.8571H195.098V27.8571ZM188.241 21V17H184.241V21H188.241ZM195.098 21H199.098V17H195.098V21ZM195.098 27.8571V31.8571H199.098V27.8571H195.098ZM188.241 27.8571H184.241V31.8571H188.241V27.8571ZM195.098 34.7143V30.7143H191.098V34.7143H195.098ZM201.955 34.7143H205.955V30.7143H201.955V34.7143ZM201.955 41.5714V45.5714H205.955V41.5714H201.955ZM195.098 41.5714H191.098V45.5714H195.098V41.5714ZM201.955 21V17H197.955V21H201.955ZM208.812 21H212.812V17H208.812V21ZM208.812 27.8571V31.8571H212.812V27.8571H208.812ZM201.955 27.8571H197.955V31.8571H201.955V27.8571ZM201.955 27.8571V23.8571H197.955V27.8571H201.955ZM208.812 27.8571H212.812V23.8571H208.812V27.8571ZM208.812 34.7143V38.7143H212.812V34.7143H208.812ZM201.955 34.7143H197.955V38.7143H201.955V34.7143ZM201.955 34.7143V30.7143H197.955V34.7143H201.955ZM208.812 34.7143H212.812V30.7143H208.812V34.7143ZM208.812 41.5714V45.5714H212.812V41.5714H208.812ZM201.955 41.5714H197.955V45.5714H201.955V41.5714ZM201.955 41.5714V37.5714H197.955V41.5714H201.955ZM208.812 41.5714H212.812V37.5714H208.812V41.5714ZM208.812 48.4286V52.4286H212.812V48.4286H208.812ZM201.955 48.4286H197.955V52.4286H201.955V48.4286ZM201.955 48.4286V44.4286H197.955V48.4286H201.955ZM208.812 48.4286H212.812V44.4286H208.812V48.4286ZM208.812 55.2857V59.2857H212.812V55.2857H208.812ZM201.955 55.2857H197.955V59.2857H201.955V55.2857ZM201.955 55.2857V51.2857H197.955V55.2857H201.955ZM208.812 55.2857H212.812V51.2857H208.812V55.2857ZM208.812 62.1429V66.1429H212.812V62.1429H208.812ZM201.955 62.1429H197.955V66.1429H201.955V62.1429ZM195.098 55.2857V51.2857H191.098V55.2857H195.098ZM201.955 55.2857H205.955V51.2857H201.955V55.2857ZM201.955 62.1429V66.1429H205.955V62.1429H201.955ZM195.098 62.1429H191.098V66.1429H195.098V62.1429ZM195.098 48.4286V44.4286H191.098V48.4286H195.098ZM201.955 48.4286H205.955V44.4286H201.955V48.4286ZM201.955 55.2857V59.2857H205.955V55.2857H201.955ZM195.098 55.2857H191.098V59.2857H195.098V55.2857ZM195.098 41.5714V37.5714H191.098V41.5714H195.098ZM201.955 41.5714H205.955V37.5714H201.955V41.5714ZM201.955 48.4286V52.4286H205.955V48.4286H201.955ZM195.098 48.4286H191.098V52.4286H195.098V48.4286ZM195.098 27.8571V23.8571H191.098V27.8571H195.098ZM201.955 27.8571H205.955V23.8571H201.955V27.8571ZM201.955 34.7143V38.7143H205.955V34.7143H201.955ZM195.098 34.7143H191.098V38.7143H195.098V34.7143ZM188.241 55.2857V51.2857H184.241V55.2857H188.241ZM195.098 55.2857H199.098V51.2857H195.098V55.2857ZM195.098 62.1429V66.1429H199.098V62.1429H195.098ZM188.241 62.1429H184.241V66.1429H188.241V62.1429ZM195.098 62.1429V58.1429H191.098V62.1429H195.098ZM201.955 62.1429H205.955V58.1429H201.955V62.1429ZM201.955 69V73H205.955V69H201.955ZM195.098 69H191.098V73H195.098V69ZM188.241 62.1429V58.1429H184.241V62.1429H188.241ZM195.098 62.1429H199.098V58.1429H195.098V62.1429ZM195.098 69V73H199.098V69H195.098ZM188.241 69H184.241V73H188.241V69ZM181.384 62.1429V58.1429H177.384V62.1429H181.384ZM188.241 62.1429H192.241V58.1429H188.241V62.1429ZM188.241 69V73H192.241V69H188.241ZM181.384 69H177.384V73H181.384V69ZM174.527 62.1429V58.1429H170.527V62.1429H174.527ZM181.384 62.1429H185.384V58.1429H181.384V62.1429ZM181.384 69V73H185.384V69H181.384ZM174.527 69H170.527V73H174.527V69ZM167.67 62.1429V58.1429H163.67V62.1429H167.67ZM174.527 62.1429H178.527V58.1429H174.527V62.1429ZM174.527 69V73H178.527V69H174.527ZM167.67 69H163.67V73H167.67V69ZM167.67 55.2857V51.2857H163.67V55.2857H167.67ZM174.527 55.2857H178.527V51.2857H174.527V55.2857ZM174.527 62.1429V66.1429H178.527V62.1429H174.527ZM167.67 62.1429H163.67V66.1429H167.67V62.1429ZM174.527 55.2857V51.2857H170.527V55.2857H174.527ZM181.384 55.2857H185.384V51.2857H181.384V55.2857ZM181.384 62.1429V66.1429H185.384V62.1429H181.384ZM174.527 62.1429H170.527V66.1429H174.527V62.1429ZM167.67 48.4286V44.4286H163.67V48.4286H167.67ZM174.527 48.4286H178.527V44.4286H174.527V48.4286ZM174.527 55.2857V59.2857H178.527V55.2857H174.527ZM167.67 55.2857H163.67V59.2857H167.67V55.2857ZM160.812 55.2857V51.2857H156.812V55.2857H160.812ZM167.67 55.2857H171.67V51.2857H167.67V55.2857ZM167.67 62.1429V66.1429H171.67V62.1429H167.67ZM160.812 62.1429H156.812V66.1429H160.812V62.1429ZM160.812 48.4286V44.4286H156.812V48.4286H160.812ZM167.67 48.4286H171.67V44.4286H167.67V48.4286ZM167.67 55.2857V59.2857H171.67V55.2857H167.67ZM160.812 55.2857H156.812V59.2857H160.812V55.2857ZM160.812 41.5714V37.5714H156.812V41.5714H160.812ZM167.67 41.5714H171.67V37.5714H167.67V41.5714ZM167.67 48.4286V52.4286H171.67V48.4286H167.67ZM160.812 48.4286H156.812V52.4286H160.812V48.4286ZM160.812 34.7143V30.7143H156.812V34.7143H160.812ZM167.67 34.7143H171.67V30.7143H167.67V34.7143ZM167.67 41.5714V45.5714H171.67V41.5714H167.67ZM160.812 41.5714H156.812V45.5714H160.812V41.5714ZM160.812 27.8571V23.8571H156.812V27.8571H160.812ZM167.67 27.8571H171.67V23.8571H167.67V27.8571ZM167.67 34.7143V38.7143H171.67V34.7143H167.67ZM160.812 34.7143H156.812V38.7143H160.812V34.7143ZM160.812 21V17H156.812V21H160.812ZM167.67 21H171.67V17H167.67V21ZM167.67 27.8571V31.8571H171.67V27.8571H167.67ZM160.812 27.8571H156.812V31.8571H160.812V27.8571ZM167.67 27.8571V23.8571H163.67V27.8571H167.67ZM174.527 27.8571H178.527V23.8571H174.527V27.8571ZM174.527 34.7143V38.7143H178.527V34.7143H174.527ZM167.67 34.7143H163.67V38.7143H167.67V34.7143ZM167.67 34.7143V30.7143H163.67V34.7143H167.67ZM174.527 34.7143H178.527V30.7143H174.527V34.7143ZM174.527 41.5714V45.5714H178.527V41.5714H174.527ZM167.67 41.5714H163.67V45.5714H167.67V41.5714ZM167.67 41.5714V37.5714H163.67V41.5714H167.67ZM174.527 41.5714H178.527V37.5714H174.527V41.5714ZM174.527 48.4286V52.4286H178.527V48.4286H174.527ZM167.67 48.4286H163.67V52.4286H167.67V48.4286ZM181.384 55.2857V51.2857H177.384V55.2857H181.384ZM188.241 55.2857H192.241V51.2857H188.241V55.2857ZM188.241 62.1429V66.1429H192.241V62.1429H188.241ZM181.384 62.1429H177.384V66.1429H181.384V62.1429ZM181.384 21V17H177.384V21H181.384ZM188.241 21H192.241V17H188.241V21ZM188.241 27.8571V31.8571H192.241V27.8571H188.241ZM181.384 27.8571H177.384V31.8571H181.384V27.8571ZM174.527 18.1429H181.384V10.1429H174.527V18.1429ZM177.384 14.1429V21H185.384V14.1429H177.384ZM181.384 17H174.527V25H181.384V17ZM178.527 21V14.1429H170.527V21H178.527ZM167.67 18.1429H174.527V10.1429H167.67V18.1429ZM170.527 14.1429V21H178.527V14.1429H170.527ZM174.527 17H167.67V25H174.527V17ZM171.67 21V14.1429H163.67V21H171.67ZM167.67 25H174.527V17H167.67V25ZM170.527 21V27.8571H178.527V21H170.527ZM174.527 23.8571H167.67V31.8571H174.527V23.8571ZM171.67 27.8571V21H163.67V27.8571H171.67ZM174.527 25H181.384V17H174.527V25ZM177.384 21V27.8571H185.384V21H177.384ZM181.384 23.8571H174.527V31.8571H181.384V23.8571ZM178.527 27.8571V21H170.527V27.8571H178.527ZM181.384 18.1429H188.241V10.1429H181.384V18.1429ZM184.241 14.1429V21H192.241V14.1429H184.241ZM188.241 17H181.384V25H188.241V17ZM185.384 21V14.1429H177.384V21H185.384ZM188.241 18.1429H195.098V10.1429H188.241V18.1429ZM191.098 14.1429V21H199.098V14.1429H191.098ZM195.098 17H188.241V25H195.098V17ZM192.241 21V14.1429H184.241V21H192.241ZM195.098 18.1429H201.955V10.1429H195.098V18.1429ZM197.955 14.1429V21H205.955V14.1429H197.955ZM201.955 17H195.098V25H201.955V17ZM199.098 21V14.1429H191.098V21H199.098ZM195.098 25H201.955V17H195.098V25ZM197.955 21V27.8571H205.955V21H197.955ZM201.955 23.8571H195.098V31.8571H201.955V23.8571ZM199.098 27.8571V21H191.098V27.8571H199.098ZM188.241 25H195.098V17H188.241V25ZM191.098 21V27.8571H199.098V21H191.098ZM195.098 23.8571H188.241V31.8571H195.098V23.8571ZM192.241 27.8571V21H184.241V27.8571H192.241ZM195.098 38.7143H201.955V30.7143H195.098V38.7143ZM197.955 34.7143V41.5714H205.955V34.7143H197.955ZM201.955 37.5714H195.098V45.5714H201.955V37.5714ZM199.098 41.5714V34.7143H191.098V41.5714H199.098ZM201.955 25H208.812V17H201.955V25ZM204.812 21V27.8571H212.812V21H204.812ZM208.812 23.8571H201.955V31.8571H208.812V23.8571ZM205.955 27.8571V21H197.955V27.8571H205.955ZM201.955 31.8571H208.812V23.8571H201.955V31.8571ZM204.812 27.8571V34.7143H212.812V27.8571H204.812ZM208.812 30.7143H201.955V38.7143H208.812V30.7143ZM205.955 34.7143V27.8571H197.955V34.7143H205.955ZM201.955 38.7143H208.812V30.7143H201.955V38.7143ZM204.812 34.7143V41.5714H212.812V34.7143H204.812ZM208.812 37.5714H201.955V45.5714H208.812V37.5714ZM205.955 41.5714V34.7143H197.955V41.5714H205.955ZM201.955 45.5714H208.812V37.5714H201.955V45.5714ZM204.812 41.5714V48.4286H212.812V41.5714H204.812ZM208.812 44.4286H201.955V52.4286H208.812V44.4286ZM205.955 48.4286V41.5714H197.955V48.4286H205.955ZM201.955 52.4286H208.812V44.4286H201.955V52.4286ZM204.812 48.4286V55.2857H212.812V48.4286H204.812ZM208.812 51.2857H201.955V59.2857H208.812V51.2857ZM205.955 55.2857V48.4286H197.955V55.2857H205.955ZM201.955 59.2857H208.812V51.2857H201.955V59.2857ZM204.812 55.2857V62.1429H212.812V55.2857H204.812ZM208.812 58.1429H201.955V66.1429H208.812V58.1429ZM205.955 62.1429V55.2857H197.955V62.1429H205.955ZM195.098 59.2857H201.955V51.2857H195.098V59.2857ZM197.955 55.2857V62.1429H205.955V55.2857H197.955ZM201.955 58.1429H195.098V66.1429H201.955V58.1429ZM199.098 62.1429V55.2857H191.098V62.1429H199.098ZM195.098 52.4286H201.955V44.4286H195.098V52.4286ZM197.955 48.4286V55.2857H205.955V48.4286H197.955ZM201.955 51.2857H195.098V59.2857H201.955V51.2857ZM199.098 55.2857V48.4286H191.098V55.2857H199.098ZM195.098 45.5714H201.955V37.5714H195.098V45.5714ZM197.955 41.5714V48.4286H205.955V41.5714H197.955ZM201.955 44.4286H195.098V52.4286H201.955V44.4286ZM199.098 48.4286V41.5714H191.098V48.4286H199.098ZM195.098 31.8571H201.955V23.8571H195.098V31.8571ZM197.955 27.8571V34.7143H205.955V27.8571H197.955ZM201.955 30.7143H195.098V38.7143H201.955V30.7143ZM199.098 34.7143V27.8571H191.098V34.7143H199.098ZM188.241 59.2857H195.098V51.2857H188.241V59.2857ZM191.098 55.2857V62.1429H199.098V55.2857H191.098ZM195.098 58.1429H188.241V66.1429H195.098V58.1429ZM192.241 62.1429V55.2857H184.241V62.1429H192.241ZM195.098 66.1429H201.955V58.1429H195.098V66.1429ZM197.955 62.1429V69H205.955V62.1429H197.955ZM201.955 65H195.098V73H201.955V65ZM199.098 69V62.1429H191.098V69H199.098ZM188.241 66.1429H195.098V58.1429H188.241V66.1429ZM191.098 62.1429V69H199.098V62.1429H191.098ZM195.098 65H188.241V73H195.098V65ZM192.241 69V62.1429H184.241V69H192.241ZM181.384 66.1429H188.241V58.1429H181.384V66.1429ZM184.241 62.1429V69H192.241V62.1429H184.241ZM188.241 65H181.384V73H188.241V65ZM185.384 69V62.1429H177.384V69H185.384ZM174.527 66.1429H181.384V58.1429H174.527V66.1429ZM177.384 62.1429V69H185.384V62.1429H177.384ZM181.384 65H174.527V73H181.384V65ZM178.527 69V62.1429H170.527V69H178.527ZM167.67 66.1429H174.527V58.1429H167.67V66.1429ZM170.527 62.1429V69H178.527V62.1429H170.527ZM174.527 65H167.67V73H174.527V65ZM171.67 69V62.1429H163.67V69H171.67ZM167.67 59.2857H174.527V51.2857H167.67V59.2857ZM170.527 55.2857V62.1429H178.527V55.2857H170.527ZM174.527 58.1429H167.67V66.1429H174.527V58.1429ZM171.67 62.1429V55.2857H163.67V62.1429H171.67ZM174.527 59.2857H181.384V51.2857H174.527V59.2857ZM177.384 55.2857V62.1429H185.384V55.2857H177.384ZM181.384 58.1429H174.527V66.1429H181.384V58.1429ZM178.527 62.1429V55.2857H170.527V62.1429H178.527ZM167.67 52.4286H174.527V44.4286H167.67V52.4286ZM170.527 48.4286V55.2857H178.527V48.4286H170.527ZM174.527 51.2857H167.67V59.2857H174.527V51.2857ZM171.67 55.2857V48.4286H163.67V55.2857H171.67ZM160.812 59.2857H167.67V51.2857H160.812V59.2857ZM163.67 55.2857V62.1429H171.67V55.2857H163.67ZM167.67 58.1429H160.812V66.1429H167.67V58.1429ZM164.812 62.1429V55.2857H156.812V62.1429H164.812ZM160.812 52.4286H167.67V44.4286H160.812V52.4286ZM163.67 48.4286V55.2857H171.67V48.4286H163.67ZM167.67 51.2857H160.812V59.2857H167.67V51.2857ZM164.812 55.2857V48.4286H156.812V55.2857H164.812ZM160.812 45.5714H167.67V37.5714H160.812V45.5714ZM163.67 41.5714V48.4286H171.67V41.5714H163.67ZM167.67 44.4286H160.812V52.4286H167.67V44.4286ZM164.812 48.4286V41.5714H156.812V48.4286H164.812ZM160.812 38.7143H167.67V30.7143H160.812V38.7143ZM163.67 34.7143V41.5714H171.67V34.7143H163.67ZM167.67 37.5714H160.812V45.5714H167.67V37.5714ZM164.812 41.5714V34.7143H156.812V41.5714H164.812ZM160.812 31.8571H167.67V23.8571H160.812V31.8571ZM163.67 27.8571V34.7143H171.67V27.8571H163.67ZM167.67 30.7143H160.812V38.7143H167.67V30.7143ZM164.812 34.7143V27.8571H156.812V34.7143H164.812ZM160.812 25H167.67V17H160.812V25ZM163.67 21V27.8571H171.67V21H163.67ZM167.67 23.8571H160.812V31.8571H167.67V23.8571ZM164.812 27.8571V21H156.812V27.8571H164.812ZM167.67 31.8571H174.527V23.8571H167.67V31.8571ZM170.527 27.8571V34.7143H178.527V27.8571H170.527ZM174.527 30.7143H167.67V38.7143H174.527V30.7143ZM171.67 34.7143V27.8571H163.67V34.7143H171.67ZM167.67 38.7143H174.527V30.7143H167.67V38.7143ZM170.527 34.7143V41.5714H178.527V34.7143H170.527ZM174.527 37.5714H167.67V45.5714H174.527V37.5714ZM171.67 41.5714V34.7143H163.67V41.5714H171.67ZM167.67 45.5714H174.527V37.5714H167.67V45.5714ZM170.527 41.5714V48.4286H178.527V41.5714H170.527ZM174.527 44.4286H167.67V52.4286H174.527V44.4286ZM171.67 48.4286V41.5714H163.67V48.4286H171.67ZM181.384 59.2857H188.241V51.2857H181.384V59.2857ZM184.241 55.2857V62.1429H192.241V55.2857H184.241ZM188.241 58.1429H181.384V66.1429H188.241V58.1429ZM185.384 62.1429V55.2857H177.384V62.1429H185.384ZM181.384 25H188.241V17H181.384V25ZM184.241 21V27.8571H192.241V21H184.241ZM188.241 23.8571H181.384V31.8571H188.241V23.8571ZM185.384 27.8571V21H177.384V27.8571H185.384ZM216.967 21V17H212.967V21H216.967ZM223.825 21H227.825V17H223.825V21ZM223.825 27.8571V31.8571H227.825V27.8571H223.825ZM216.967 27.8571H212.967V31.8571H216.967V27.8571ZM216.967 14.1429V10.1429H212.967V14.1429H216.967ZM223.825 14.1429H227.825V10.1429H223.825V14.1429ZM223.825 21V25H227.825V21H223.825ZM216.967 21H212.967V25H216.967V21ZM223.825 14.1429V10.1429H219.825V14.1429H223.825ZM230.682 14.1429H234.682V10.1429H230.682V14.1429ZM230.682 21V25H234.682V21H230.682ZM223.825 21H219.825V25H223.825V21ZM223.825 21V17H219.825V21H223.825ZM230.682 21H234.682V17H230.682V21ZM230.682 27.8571V31.8571H234.682V27.8571H230.682ZM223.825 27.8571H219.825V31.8571H223.825V27.8571ZM223.825 27.8571V23.8571H219.825V27.8571H223.825ZM230.682 27.8571H234.682V23.8571H230.682V27.8571ZM230.682 34.7143V38.7143H234.682V34.7143H230.682ZM223.825 34.7143H219.825V38.7143H223.825V34.7143ZM223.825 34.7143V30.7143H219.825V34.7143H223.825ZM230.682 34.7143H234.682V30.7143H230.682V34.7143ZM230.682 41.5714V45.5714H234.682V41.5714H230.682ZM223.825 41.5714H219.825V45.5714H223.825V41.5714ZM223.825 41.5714V37.5714H219.825V41.5714H223.825ZM230.682 41.5714H234.682V37.5714H230.682V41.5714ZM230.682 48.4286V52.4286H234.682V48.4286H230.682ZM223.825 48.4286H219.825V52.4286H223.825V48.4286ZM216.967 41.5714V37.5714H212.967V41.5714H216.967ZM223.825 41.5714H227.825V37.5714H223.825V41.5714ZM223.825 48.4286V52.4286H227.825V48.4286H223.825ZM216.967 48.4286H212.967V52.4286H216.967V48.4286ZM216.967 34.7143V30.7143H212.967V34.7143H216.967ZM223.825 34.7143H227.825V30.7143H223.825V34.7143ZM223.825 41.5714V45.5714H227.825V41.5714H223.825ZM216.967 41.5714H212.967V45.5714H216.967V41.5714ZM216.967 27.8571V23.8571H212.967V27.8571H216.967ZM223.825 27.8571H227.825V23.8571H223.825V27.8571ZM223.825 34.7143V38.7143H227.825V34.7143H223.825ZM216.967 34.7143H212.967V38.7143H216.967V34.7143ZM216.967 48.4286V44.4286H212.967V48.4286H216.967ZM223.825 48.4286H227.825V44.4286H223.825V48.4286ZM223.825 55.2857V59.2857H227.825V55.2857H223.825ZM216.967 55.2857H212.967V59.2857H216.967V55.2857ZM223.825 48.4286V44.4286H219.825V48.4286H223.825ZM230.682 48.4286H234.682V44.4286H230.682V48.4286ZM230.682 55.2857V59.2857H234.682V55.2857H230.682ZM223.825 55.2857H219.825V59.2857H223.825V55.2857ZM223.825 55.2857V51.2857H219.825V55.2857H223.825ZM230.682 55.2857H234.682V51.2857H230.682V55.2857ZM230.682 62.1429V66.1429H234.682V62.1429H230.682ZM223.825 62.1429H219.825V66.1429H223.825V62.1429ZM223.825 62.1429V58.1429H219.825V62.1429H223.825ZM230.682 62.1429H234.682V58.1429H230.682V62.1429ZM230.682 69V73H234.682V69H230.682ZM223.825 69H219.825V73H223.825V69ZM216.967 62.1429V58.1429H212.967V62.1429H216.967ZM223.825 62.1429H227.825V58.1429H223.825V62.1429ZM223.825 69V73H227.825V69H223.825ZM216.967 69H212.967V73H216.967V69ZM216.967 55.2857V51.2857H212.967V55.2857H216.967ZM223.825 55.2857H227.825V51.2857H223.825V55.2857ZM223.825 62.1429V66.1429H227.825V62.1429H223.825ZM216.967 62.1429H212.967V66.1429H216.967V62.1429ZM251.253 62.1429V58.1429H247.253V62.1429H251.253ZM258.11 62.1429H262.11V58.1429H258.11V62.1429ZM258.11 69V73H262.11V69H258.11ZM251.253 69H247.253V73H251.253V69ZM258.11 62.1429V58.1429H254.11V62.1429H258.11ZM264.967 62.1429H268.967V58.1429H264.967V62.1429ZM264.967 69V73H268.967V69H264.967ZM258.11 69H254.11V73H258.11V69ZM258.11 55.2857V51.2857H254.11V55.2857H258.11ZM264.967 55.2857H268.967V51.2857H264.967V55.2857ZM264.967 62.1429V66.1429H268.967V62.1429H264.967ZM258.11 62.1429H254.11V66.1429H258.11V62.1429ZM258.11 48.4286V44.4286H254.11V48.4286H258.11ZM264.967 48.4286H268.967V44.4286H264.967V48.4286ZM264.967 55.2857V59.2857H268.967V55.2857H264.967ZM258.11 55.2857H254.11V59.2857H258.11V55.2857ZM258.11 41.5714V37.5714H254.11V41.5714H258.11ZM264.967 41.5714H268.967V37.5714H264.967V41.5714ZM264.967 48.4286V52.4286H268.967V48.4286H264.967ZM258.11 48.4286H254.11V52.4286H258.11V48.4286ZM258.11 34.7143V30.7143H254.11V34.7143H258.11ZM264.967 34.7143H268.967V30.7143H264.967V34.7143ZM264.967 41.5714V45.5714H268.967V41.5714H264.967ZM258.11 41.5714H254.11V45.5714H258.11V41.5714ZM258.11 27.8571V23.8571H254.11V27.8571H258.11ZM264.967 27.8571H268.967V23.8571H264.967V27.8571ZM264.967 34.7143V38.7143H268.967V34.7143H264.967ZM258.11 34.7143H254.11V38.7143H258.11V34.7143ZM258.11 21V17H254.11V21H258.11ZM264.967 21H268.967V17H264.967V21ZM264.967 27.8571V31.8571H268.967V27.8571H264.967ZM258.11 27.8571H254.11V31.8571H258.11V27.8571ZM251.253 34.7143V30.7143H247.253V34.7143H251.253ZM258.11 34.7143H262.11V30.7143H258.11V34.7143ZM258.11 41.5714V45.5714H262.11V41.5714H258.11ZM251.253 41.5714H247.253V45.5714H251.253V41.5714ZM251.253 41.5714V37.5714H247.253V41.5714H251.253ZM258.11 41.5714H262.11V37.5714H258.11V41.5714ZM258.11 48.4286V52.4286H262.11V48.4286H258.11ZM251.253 48.4286H247.253V52.4286H251.253V48.4286ZM251.253 48.4286V44.4286H247.253V48.4286H251.253ZM258.11 48.4286H262.11V44.4286H258.11V48.4286ZM258.11 55.2857V59.2857H262.11V55.2857H258.11ZM251.253 55.2857H247.253V59.2857H251.253V55.2857ZM251.253 55.2857V51.2857H247.253V55.2857H251.253ZM258.11 55.2857H262.11V51.2857H258.11V55.2857ZM258.11 62.1429V66.1429H262.11V62.1429H258.11ZM251.253 62.1429H247.253V66.1429H251.253V62.1429ZM251.253 27.8571V23.8571H247.253V27.8571H251.253ZM258.11 27.8571H262.11V23.8571H258.11V27.8571ZM258.11 34.7143V38.7143H262.11V34.7143H258.11ZM251.253 34.7143H247.253V38.7143H251.253V34.7143ZM230.682 21V17H226.682V21H230.682ZM237.539 21H241.539V17H237.539V21ZM237.539 27.8571V31.8571H241.539V27.8571H237.539ZM230.682 27.8571H226.682V31.8571H230.682V27.8571ZM237.539 21V17H233.539V21H237.539ZM244.396 21H248.396V17H244.396V21ZM244.396 27.8571V31.8571H248.396V27.8571H244.396ZM237.539 27.8571H233.539V31.8571H237.539V27.8571ZM244.396 21V17H240.396V21H244.396ZM251.253 21H255.253V17H251.253V21ZM251.253 27.8571V31.8571H255.253V27.8571H251.253ZM244.396 27.8571H240.396V31.8571H244.396V27.8571ZM244.396 14.1429V10.1429H240.396V14.1429H244.396ZM251.253 14.1429H255.253V10.1429H251.253V14.1429ZM251.253 21V25H255.253V21H251.253ZM244.396 21H240.396V25H244.396V21ZM251.253 14.1429V10.1429H247.253V14.1429H251.253ZM258.11 14.1429H262.11V10.1429H258.11V14.1429ZM258.11 21V25H262.11V21H258.11ZM251.253 21H247.253V25H251.253V21ZM251.253 21V17H247.253V21H251.253ZM258.11 21H262.11V17H258.11V21ZM258.11 27.8571V31.8571H262.11V27.8571H258.11ZM251.253 27.8571H247.253V31.8571H251.253V27.8571ZM237.539 14.1429V10.1429H233.539V14.1429H237.539ZM244.396 14.1429H248.396V10.1429H244.396V14.1429ZM244.396 21V25H248.396V21H244.396ZM237.539 21H233.539V25H237.539V21ZM216.967 25H223.825V17H216.967V25ZM219.825 21V27.8571H227.825V21H219.825ZM223.825 23.8571H216.967V31.8571H223.825V23.8571ZM220.967 27.8571V21H212.967V27.8571H220.967ZM216.967 18.1429H223.825V10.1429H216.967V18.1429ZM219.825 14.1429V21H227.825V14.1429H219.825ZM223.825 17H216.967V25H223.825V17ZM220.967 21V14.1429H212.967V21H220.967ZM223.825 18.1429H230.682V10.1429H223.825V18.1429ZM226.682 14.1429V21H234.682V14.1429H226.682ZM230.682 17H223.825V25H230.682V17ZM227.825 21V14.1429H219.825V21H227.825ZM223.825 25H230.682V17H223.825V25ZM226.682 21V27.8571H234.682V21H226.682ZM230.682 23.8571H223.825V31.8571H230.682V23.8571ZM227.825 27.8571V21H219.825V27.8571H227.825ZM223.825 31.8571H230.682V23.8571H223.825V31.8571ZM226.682 27.8571V34.7143H234.682V27.8571H226.682ZM230.682 30.7143H223.825V38.7143H230.682V30.7143ZM227.825 34.7143V27.8571H219.825V34.7143H227.825ZM223.825 38.7143H230.682V30.7143H223.825V38.7143ZM226.682 34.7143V41.5714H234.682V34.7143H226.682ZM230.682 37.5714H223.825V45.5714H230.682V37.5714ZM227.825 41.5714V34.7143H219.825V41.5714H227.825ZM223.825 45.5714H230.682V37.5714H223.825V45.5714ZM226.682 41.5714V48.4286H234.682V41.5714H226.682ZM230.682 44.4286H223.825V52.4286H230.682V44.4286ZM227.825 48.4286V41.5714H219.825V48.4286H227.825ZM216.967 45.5714H223.825V37.5714H216.967V45.5714ZM219.825 41.5714V48.4286H227.825V41.5714H219.825ZM223.825 44.4286H216.967V52.4286H223.825V44.4286ZM220.967 48.4286V41.5714H212.967V48.4286H220.967ZM216.967 38.7143H223.825V30.7143H216.967V38.7143ZM219.825 34.7143V41.5714H227.825V34.7143H219.825ZM223.825 37.5714H216.967V45.5714H223.825V37.5714ZM220.967 41.5714V34.7143H212.967V41.5714H220.967ZM216.967 31.8571H223.825V23.8571H216.967V31.8571ZM219.825 27.8571V34.7143H227.825V27.8571H219.825ZM223.825 30.7143H216.967V38.7143H223.825V30.7143ZM220.967 34.7143V27.8571H212.967V34.7143H220.967ZM216.967 52.4286H223.825V44.4286H216.967V52.4286ZM219.825 48.4286V55.2857H227.825V48.4286H219.825ZM223.825 51.2857H216.967V59.2857H223.825V51.2857ZM220.967 55.2857V48.4286H212.967V55.2857H220.967ZM223.825 52.4286H230.682V44.4286H223.825V52.4286ZM226.682 48.4286V55.2857H234.682V48.4286H226.682ZM230.682 51.2857H223.825V59.2857H230.682V51.2857ZM227.825 55.2857V48.4286H219.825V55.2857H227.825ZM223.825 59.2857H230.682V51.2857H223.825V59.2857ZM226.682 55.2857V62.1429H234.682V55.2857H226.682ZM230.682 58.1429H223.825V66.1429H230.682V58.1429ZM227.825 62.1429V55.2857H219.825V62.1429H227.825ZM223.825 66.1429H230.682V58.1429H223.825V66.1429ZM226.682 62.1429V69H234.682V62.1429H226.682ZM230.682 65H223.825V73H230.682V65ZM227.825 69V62.1429H219.825V69H227.825ZM216.967 66.1429H223.825V58.1429H216.967V66.1429ZM219.825 62.1429V69H227.825V62.1429H219.825ZM223.825 65H216.967V73H223.825V65ZM220.967 69V62.1429H212.967V69H220.967ZM216.967 59.2857H223.825V51.2857H216.967V59.2857ZM219.825 55.2857V62.1429H227.825V55.2857H219.825ZM223.825 58.1429H216.967V66.1429H223.825V58.1429ZM220.967 62.1429V55.2857H212.967V62.1429H220.967ZM251.253 66.1429H258.11V58.1429H251.253V66.1429ZM254.11 62.1429V69H262.11V62.1429H254.11ZM258.11 65H251.253V73H258.11V65ZM255.253 69V62.1429H247.253V69H255.253ZM258.11 66.1429H264.967V58.1429H258.11V66.1429ZM260.967 62.1429V69H268.967V62.1429H260.967ZM264.967 65H258.11V73H264.967V65ZM262.11 69V62.1429H254.11V69H262.11ZM258.11 59.2857H264.967V51.2857H258.11V59.2857ZM260.967 55.2857V62.1429H268.967V55.2857H260.967ZM264.967 58.1429H258.11V66.1429H264.967V58.1429ZM262.11 62.1429V55.2857H254.11V62.1429H262.11ZM258.11 52.4286H264.967V44.4286H258.11V52.4286ZM260.967 48.4286V55.2857H268.967V48.4286H260.967ZM264.967 51.2857H258.11V59.2857H264.967V51.2857ZM262.11 55.2857V48.4286H254.11V55.2857H262.11ZM258.11 45.5714H264.967V37.5714H258.11V45.5714ZM260.967 41.5714V48.4286H268.967V41.5714H260.967ZM264.967 44.4286H258.11V52.4286H264.967V44.4286ZM262.11 48.4286V41.5714H254.11V48.4286H262.11ZM258.11 38.7143H264.967V30.7143H258.11V38.7143ZM260.967 34.7143V41.5714H268.967V34.7143H260.967ZM264.967 37.5714H258.11V45.5714H264.967V37.5714ZM262.11 41.5714V34.7143H254.11V41.5714H262.11ZM258.11 31.8571H264.967V23.8571H258.11V31.8571ZM260.967 27.8571V34.7143H268.967V27.8571H260.967ZM264.967 30.7143H258.11V38.7143H264.967V30.7143ZM262.11 34.7143V27.8571H254.11V34.7143H262.11ZM258.11 25H264.967V17H258.11V25ZM260.967 21V27.8571H268.967V21H260.967ZM264.967 23.8571H258.11V31.8571H264.967V23.8571ZM262.11 27.8571V21H254.11V27.8571H262.11ZM251.253 38.7143H258.11V30.7143H251.253V38.7143ZM254.11 34.7143V41.5714H262.11V34.7143H254.11ZM258.11 37.5714H251.253V45.5714H258.11V37.5714ZM255.253 41.5714V34.7143H247.253V41.5714H255.253ZM251.253 45.5714H258.11V37.5714H251.253V45.5714ZM254.11 41.5714V48.4286H262.11V41.5714H254.11ZM258.11 44.4286H251.253V52.4286H258.11V44.4286ZM255.253 48.4286V41.5714H247.253V48.4286H255.253ZM251.253 52.4286H258.11V44.4286H251.253V52.4286ZM254.11 48.4286V55.2857H262.11V48.4286H254.11ZM258.11 51.2857H251.253V59.2857H258.11V51.2857ZM255.253 55.2857V48.4286H247.253V55.2857H255.253ZM251.253 59.2857H258.11V51.2857H251.253V59.2857ZM254.11 55.2857V62.1429H262.11V55.2857H254.11ZM258.11 58.1429H251.253V66.1429H258.11V58.1429ZM255.253 62.1429V55.2857H247.253V62.1429H255.253ZM251.253 31.8571H258.11V23.8571H251.253V31.8571ZM254.11 27.8571V34.7143H262.11V27.8571H254.11ZM258.11 30.7143H251.253V38.7143H258.11V30.7143ZM255.253 34.7143V27.8571H247.253V34.7143H255.253ZM230.682 25H237.539V17H230.682V25ZM233.539 21V27.8571H241.539V21H233.539ZM237.539 23.8571H230.682V31.8571H237.539V23.8571ZM234.682 27.8571V21H226.682V27.8571H234.682ZM237.539 25H244.396V17H237.539V25ZM240.396 21V27.8571H248.396V21H240.396ZM244.396 23.8571H237.539V31.8571H244.396V23.8571ZM241.539 27.8571V21H233.539V27.8571H241.539ZM244.396 25H251.253V17H244.396V25ZM247.253 21V27.8571H255.253V21H247.253ZM251.253 23.8571H244.396V31.8571H251.253V23.8571ZM248.396 27.8571V21H240.396V27.8571H248.396ZM244.396 18.1429H251.253V10.1429H244.396V18.1429ZM247.253 14.1429V21H255.253V14.1429H247.253ZM251.253 17H244.396V25H251.253V17ZM248.396 21V14.1429H240.396V21H248.396ZM251.253 18.1429H258.11V10.1429H251.253V18.1429ZM254.11 14.1429V21H262.11V14.1429H254.11ZM258.11 17H251.253V25H258.11V17ZM255.253 21V14.1429H247.253V21H255.253ZM251.253 25H258.11V17H251.253V25ZM254.11 21V27.8571H262.11V21H254.11ZM258.11 23.8571H251.253V31.8571H258.11V23.8571ZM255.253 27.8571V21H247.253V27.8571H255.253ZM237.539 18.1429H244.396V10.1429H237.539V18.1429ZM240.396 14.1429V21H248.396V14.1429H240.396ZM244.396 17H237.539V25H244.396V17ZM241.539 21V14.1429H233.539V21H241.539ZM273.122 0.428574V-3.57143H269.122V0.428574H273.122ZM286.837 0.428574H290.837V-3.57143H286.837V0.428574ZM286.837 14.1429V18.1429H290.837V14.1429H286.837ZM273.122 14.1429H269.122V18.1429H273.122V14.1429ZM273.122 21V17H269.122V21H273.122ZM286.837 21H290.837V17H286.837V21ZM286.837 69V73H290.837V69H286.837ZM273.122 69H269.122V73H273.122V69ZM273.122 4.42857H286.837V-3.57143H273.122V4.42857ZM282.837 0.428574V14.1429H290.837V0.428574H282.837ZM286.837 10.1429H273.122V18.1429H286.837V10.1429ZM277.122 14.1429V0.428574H269.122V14.1429H277.122ZM273.122 25H286.837V17H273.122V25ZM282.837 21V69H290.837V21H282.837ZM286.837 65H273.122V73H286.837V65ZM277.122 69V21H269.122V69H277.122ZM308.742 14.1429V10.1429H304.742V14.1429H308.742ZM315.599 14.1429H319.599V10.1429H315.599V14.1429ZM315.599 21V25H319.599V21H315.599ZM308.742 21H304.742V25H308.742V21ZM301.885 14.1429V10.1429H297.885V14.1429H301.885ZM308.742 14.1429H312.742V10.1429H308.742V14.1429ZM308.742 21V25H312.742V21H308.742ZM301.885 21H297.885V25H301.885V21ZM301.885 21V17H297.885V21H301.885ZM308.742 21H312.742V17H308.742V21ZM308.742 27.8571V31.8571H312.742V27.8571H308.742ZM301.885 27.8571H297.885V31.8571H301.885V27.8571ZM308.742 21V17H304.742V21H308.742ZM315.599 21H319.599V17H315.599V21ZM315.599 27.8571V31.8571H319.599V27.8571H315.599ZM308.742 27.8571H304.742V31.8571H308.742V27.8571ZM315.599 14.1429V10.1429H311.599V14.1429H315.599ZM322.456 14.1429H326.456V10.1429H322.456V14.1429ZM322.456 21V25H326.456V21H322.456ZM315.599 21H311.599V25H315.599V21ZM322.456 14.1429V10.1429H318.456V14.1429H322.456ZM329.313 14.1429H333.313V10.1429H329.313V14.1429ZM329.313 21V25H333.313V21H329.313ZM322.456 21H318.456V25H322.456V21ZM329.313 14.1429V10.1429H325.313V14.1429H329.313ZM336.17 14.1429H340.17V10.1429H336.17V14.1429ZM336.17 21V25H340.17V21H336.17ZM329.313 21H325.313V25H329.313V21ZM329.313 21V17H325.313V21H329.313ZM336.17 21H340.17V17H336.17V21ZM336.17 27.8571V31.8571H340.17V27.8571H336.17ZM329.313 27.8571H325.313V31.8571H329.313V27.8571ZM322.456 21V17H318.456V21H322.456ZM329.313 21H333.313V17H329.313V21ZM329.313 27.8571V31.8571H333.313V27.8571H329.313ZM322.456 27.8571H318.456V31.8571H322.456V27.8571ZM336.17 21V17H332.17V21H336.17ZM343.027 21H347.027V17H343.027V21ZM343.027 27.8571V31.8571H347.027V27.8571H343.027ZM336.17 27.8571H332.17V31.8571H336.17V27.8571ZM336.17 27.8571V23.8571H332.17V27.8571H336.17ZM343.027 27.8571H347.027V23.8571H343.027V27.8571ZM343.027 34.7143V38.7143H347.027V34.7143H343.027ZM336.17 34.7143H332.17V38.7143H336.17V34.7143ZM336.17 48.4286V44.4286H332.17V48.4286H336.17ZM343.027 48.4286H347.027V44.4286H343.027V48.4286ZM343.027 55.2857V59.2857H347.027V55.2857H343.027ZM336.17 55.2857H332.17V59.2857H336.17V55.2857ZM336.17 55.2857V51.2857H332.17V55.2857H336.17ZM343.027 55.2857H347.027V51.2857H343.027V55.2857ZM343.027 62.1429V66.1429H347.027V62.1429H343.027ZM336.17 62.1429H332.17V66.1429H336.17V62.1429ZM329.313 55.2857V51.2857H325.313V55.2857H329.313ZM336.17 55.2857H340.17V51.2857H336.17V55.2857ZM336.17 62.1429V66.1429H340.17V62.1429H336.17ZM329.313 62.1429H325.313V66.1429H329.313V62.1429ZM329.313 48.4286V44.4286H325.313V48.4286H329.313ZM336.17 48.4286H340.17V44.4286H336.17V48.4286ZM336.17 55.2857V59.2857H340.17V55.2857H336.17ZM329.313 55.2857H325.313V59.2857H329.313V55.2857ZM329.313 27.8571V23.8571H325.313V27.8571H329.313ZM336.17 27.8571H340.17V23.8571H336.17V27.8571ZM336.17 34.7143V38.7143H340.17V34.7143H336.17ZM329.313 34.7143H325.313V38.7143H329.313V34.7143ZM322.456 55.2857V51.2857H318.456V55.2857H322.456ZM329.313 55.2857H333.313V51.2857H329.313V55.2857ZM329.313 62.1429V66.1429H333.313V62.1429H329.313ZM322.456 62.1429H318.456V66.1429H322.456V62.1429ZM329.313 62.1429V58.1429H325.313V62.1429H329.313ZM336.17 62.1429H340.17V58.1429H336.17V62.1429ZM336.17 69V73H340.17V69H336.17ZM329.313 69H325.313V73H329.313V69ZM322.456 62.1429V58.1429H318.456V62.1429H322.456ZM329.313 62.1429H333.313V58.1429H329.313V62.1429ZM329.313 69V73H333.313V69H329.313ZM322.456 69H318.456V73H322.456V69ZM315.599 62.1429V58.1429H311.599V62.1429H315.599ZM322.456 62.1429H326.456V58.1429H322.456V62.1429ZM322.456 69V73H326.456V69H322.456ZM315.599 69H311.599V73H315.599V69ZM308.742 62.1429V58.1429H304.742V62.1429H308.742ZM315.599 62.1429H319.599V58.1429H315.599V62.1429ZM315.599 69V73H319.599V69H315.599ZM308.742 69H304.742V73H308.742V69ZM301.885 62.1429V58.1429H297.885V62.1429H301.885ZM308.742 62.1429H312.742V58.1429H308.742V62.1429ZM308.742 69V73H312.742V69H308.742ZM301.885 69H297.885V73H301.885V69ZM301.885 55.2857V51.2857H297.885V55.2857H301.885ZM308.742 55.2857H312.742V51.2857H308.742V55.2857ZM308.742 62.1429V66.1429H312.742V62.1429H308.742ZM301.885 62.1429H297.885V66.1429H301.885V62.1429ZM308.742 55.2857V51.2857H304.742V55.2857H308.742ZM315.599 55.2857H319.599V51.2857H315.599V55.2857ZM315.599 62.1429V66.1429H319.599V62.1429H315.599ZM308.742 62.1429H304.742V66.1429H308.742V62.1429ZM301.885 48.4286V44.4286H297.885V48.4286H301.885ZM308.742 48.4286H312.742V44.4286H308.742V48.4286ZM308.742 55.2857V59.2857H312.742V55.2857H308.742ZM301.885 55.2857H297.885V59.2857H301.885V55.2857ZM295.027 55.2857V51.2857H291.027V55.2857H295.027ZM301.885 55.2857H305.885V51.2857H301.885V55.2857ZM301.885 62.1429V66.1429H305.885V62.1429H301.885ZM295.027 62.1429H291.027V66.1429H295.027V62.1429ZM295.027 48.4286V44.4286H291.027V48.4286H295.027ZM301.885 48.4286H305.885V44.4286H301.885V48.4286ZM301.885 55.2857V59.2857H305.885V55.2857H301.885ZM295.027 55.2857H291.027V59.2857H295.027V55.2857ZM295.027 41.5714V37.5714H291.027V41.5714H295.027ZM301.885 41.5714H305.885V37.5714H301.885V41.5714ZM301.885 48.4286V52.4286H305.885V48.4286H301.885ZM295.027 48.4286H291.027V52.4286H295.027V48.4286ZM295.027 34.7143V30.7143H291.027V34.7143H295.027ZM301.885 34.7143H305.885V30.7143H301.885V34.7143ZM301.885 41.5714V45.5714H305.885V41.5714H301.885ZM295.027 41.5714H291.027V45.5714H295.027V41.5714ZM295.027 27.8571V23.8571H291.027V27.8571H295.027ZM301.885 27.8571H305.885V23.8571H301.885V27.8571ZM301.885 34.7143V38.7143H305.885V34.7143H301.885ZM295.027 34.7143H291.027V38.7143H295.027V34.7143ZM295.027 21V17H291.027V21H295.027ZM301.885 21H305.885V17H301.885V21ZM301.885 27.8571V31.8571H305.885V27.8571H301.885ZM295.027 27.8571H291.027V31.8571H295.027V27.8571ZM301.885 27.8571V23.8571H297.885V27.8571H301.885ZM308.742 27.8571H312.742V23.8571H308.742V27.8571ZM308.742 34.7143V38.7143H312.742V34.7143H308.742ZM301.885 34.7143H297.885V38.7143H301.885V34.7143ZM301.885 34.7143V30.7143H297.885V34.7143H301.885ZM308.742 34.7143H312.742V30.7143H308.742V34.7143ZM308.742 41.5714V45.5714H312.742V41.5714H308.742ZM301.885 41.5714H297.885V45.5714H301.885V41.5714ZM301.885 41.5714V37.5714H297.885V41.5714H301.885ZM308.742 41.5714H312.742V37.5714H308.742V41.5714ZM308.742 48.4286V52.4286H312.742V48.4286H308.742ZM301.885 48.4286H297.885V52.4286H301.885V48.4286ZM315.599 55.2857V51.2857H311.599V55.2857H315.599ZM322.456 55.2857H326.456V51.2857H322.456V55.2857ZM322.456 62.1429V66.1429H326.456V62.1429H322.456ZM315.599 62.1429H311.599V66.1429H315.599V62.1429ZM315.599 21V17H311.599V21H315.599ZM322.456 21H326.456V17H322.456V21ZM322.456 27.8571V31.8571H326.456V27.8571H322.456ZM315.599 27.8571H311.599V31.8571H315.599V27.8571ZM308.742 18.1429H315.599V10.1429H308.742V18.1429ZM311.599 14.1429V21H319.599V14.1429H311.599ZM315.599 17H308.742V25H315.599V17ZM312.742 21V14.1429H304.742V21H312.742ZM301.885 18.1429H308.742V10.1429H301.885V18.1429ZM304.742 14.1429V21H312.742V14.1429H304.742ZM308.742 17H301.885V25H308.742V17ZM305.885 21V14.1429H297.885V21H305.885ZM301.885 25H308.742V17H301.885V25ZM304.742 21V27.8571H312.742V21H304.742ZM308.742 23.8571H301.885V31.8571H308.742V23.8571ZM305.885 27.8571V21H297.885V27.8571H305.885ZM308.742 25H315.599V17H308.742V25ZM311.599 21V27.8571H319.599V21H311.599ZM315.599 23.8571H308.742V31.8571H315.599V23.8571ZM312.742 27.8571V21H304.742V27.8571H312.742ZM315.599 18.1429H322.456V10.1429H315.599V18.1429ZM318.456 14.1429V21H326.456V14.1429H318.456ZM322.456 17H315.599V25H322.456V17ZM319.599 21V14.1429H311.599V21H319.599ZM322.456 18.1429H329.313V10.1429H322.456V18.1429ZM325.313 14.1429V21H333.313V14.1429H325.313ZM329.313 17H322.456V25H329.313V17ZM326.456 21V14.1429H318.456V21H326.456ZM329.313 18.1429H336.17V10.1429H329.313V18.1429ZM332.17 14.1429V21H340.17V14.1429H332.17ZM336.17 17H329.313V25H336.17V17ZM333.313 21V14.1429H325.313V21H333.313ZM329.313 25H336.17V17H329.313V25ZM332.17 21V27.8571H340.17V21H332.17ZM336.17 23.8571H329.313V31.8571H336.17V23.8571ZM333.313 27.8571V21H325.313V27.8571H333.313ZM322.456 25H329.313V17H322.456V25ZM325.313 21V27.8571H333.313V21H325.313ZM329.313 23.8571H322.456V31.8571H329.313V23.8571ZM326.456 27.8571V21H318.456V27.8571H326.456ZM336.17 25H343.027V17H336.17V25ZM339.027 21V27.8571H347.027V21H339.027ZM343.027 23.8571H336.17V31.8571H343.027V23.8571ZM340.17 27.8571V21H332.17V27.8571H340.17ZM336.17 31.8571H343.027V23.8571H336.17V31.8571ZM339.027 27.8571V34.7143H347.027V27.8571H339.027ZM343.027 30.7143H336.17V38.7143H343.027V30.7143ZM340.17 34.7143V27.8571H332.17V34.7143H340.17ZM336.17 52.4286H343.027V44.4286H336.17V52.4286ZM339.027 48.4286V55.2857H347.027V48.4286H339.027ZM343.027 51.2857H336.17V59.2857H343.027V51.2857ZM340.17 55.2857V48.4286H332.17V55.2857H340.17ZM336.17 59.2857H343.027V51.2857H336.17V59.2857ZM339.027 55.2857V62.1429H347.027V55.2857H339.027ZM343.027 58.1429H336.17V66.1429H343.027V58.1429ZM340.17 62.1429V55.2857H332.17V62.1429H340.17ZM329.313 59.2857H336.17V51.2857H329.313V59.2857ZM332.17 55.2857V62.1429H340.17V55.2857H332.17ZM336.17 58.1429H329.313V66.1429H336.17V58.1429ZM333.313 62.1429V55.2857H325.313V62.1429H333.313ZM329.313 52.4286H336.17V44.4286H329.313V52.4286ZM332.17 48.4286V55.2857H340.17V48.4286H332.17ZM336.17 51.2857H329.313V59.2857H336.17V51.2857ZM333.313 55.2857V48.4286H325.313V55.2857H333.313ZM329.313 31.8571H336.17V23.8571H329.313V31.8571ZM332.17 27.8571V34.7143H340.17V27.8571H332.17ZM336.17 30.7143H329.313V38.7143H336.17V30.7143ZM333.313 34.7143V27.8571H325.313V34.7143H333.313ZM322.456 59.2857H329.313V51.2857H322.456V59.2857ZM325.313 55.2857V62.1429H333.313V55.2857H325.313ZM329.313 58.1429H322.456V66.1429H329.313V58.1429ZM326.456 62.1429V55.2857H318.456V62.1429H326.456ZM329.313 66.1429H336.17V58.1429H329.313V66.1429ZM332.17 62.1429V69H340.17V62.1429H332.17ZM336.17 65H329.313V73H336.17V65ZM333.313 69V62.1429H325.313V69H333.313ZM322.456 66.1429H329.313V58.1429H322.456V66.1429ZM325.313 62.1429V69H333.313V62.1429H325.313ZM329.313 65H322.456V73H329.313V65ZM326.456 69V62.1429H318.456V69H326.456ZM315.599 66.1429H322.456V58.1429H315.599V66.1429ZM318.456 62.1429V69H326.456V62.1429H318.456ZM322.456 65H315.599V73H322.456V65ZM319.599 69V62.1429H311.599V69H319.599ZM308.742 66.1429H315.599V58.1429H308.742V66.1429ZM311.599 62.1429V69H319.599V62.1429H311.599ZM315.599 65H308.742V73H315.599V65ZM312.742 69V62.1429H304.742V69H312.742ZM301.885 66.1429H308.742V58.1429H301.885V66.1429ZM304.742 62.1429V69H312.742V62.1429H304.742ZM308.742 65H301.885V73H308.742V65ZM305.885 69V62.1429H297.885V69H305.885ZM301.885 59.2857H308.742V51.2857H301.885V59.2857ZM304.742 55.2857V62.1429H312.742V55.2857H304.742ZM308.742 58.1429H301.885V66.1429H308.742V58.1429ZM305.885 62.1429V55.2857H297.885V62.1429H305.885ZM308.742 59.2857H315.599V51.2857H308.742V59.2857ZM311.599 55.2857V62.1429H319.599V55.2857H311.599ZM315.599 58.1429H308.742V66.1429H315.599V58.1429ZM312.742 62.1429V55.2857H304.742V62.1429H312.742ZM301.885 52.4286H308.742V44.4286H301.885V52.4286ZM304.742 48.4286V55.2857H312.742V48.4286H304.742ZM308.742 51.2857H301.885V59.2857H308.742V51.2857ZM305.885 55.2857V48.4286H297.885V55.2857H305.885ZM295.027 59.2857H301.885V51.2857H295.027V59.2857ZM297.885 55.2857V62.1429H305.885V55.2857H297.885ZM301.885 58.1429H295.027V66.1429H301.885V58.1429ZM299.027 62.1429V55.2857H291.027V62.1429H299.027ZM295.027 52.4286H301.885V44.4286H295.027V52.4286ZM297.885 48.4286V55.2857H305.885V48.4286H297.885ZM301.885 51.2857H295.027V59.2857H301.885V51.2857ZM299.027 55.2857V48.4286H291.027V55.2857H299.027ZM295.027 45.5714H301.885V37.5714H295.027V45.5714ZM297.885 41.5714V48.4286H305.885V41.5714H297.885ZM301.885 44.4286H295.027V52.4286H301.885V44.4286ZM299.027 48.4286V41.5714H291.027V48.4286H299.027ZM295.027 38.7143H301.885V30.7143H295.027V38.7143ZM297.885 34.7143V41.5714H305.885V34.7143H297.885ZM301.885 37.5714H295.027V45.5714H301.885V37.5714ZM299.027 41.5714V34.7143H291.027V41.5714H299.027ZM295.027 31.8571H301.885V23.8571H295.027V31.8571ZM297.885 27.8571V34.7143H305.885V27.8571H297.885ZM301.885 30.7143H295.027V38.7143H301.885V30.7143ZM299.027 34.7143V27.8571H291.027V34.7143H299.027ZM295.027 25H301.885V17H295.027V25ZM297.885 21V27.8571H305.885V21H297.885ZM301.885 23.8571H295.027V31.8571H301.885V23.8571ZM299.027 27.8571V21H291.027V27.8571H299.027ZM301.885 31.8571H308.742V23.8571H301.885V31.8571ZM304.742 27.8571V34.7143H312.742V27.8571H304.742ZM308.742 30.7143H301.885V38.7143H308.742V30.7143ZM305.885 34.7143V27.8571H297.885V34.7143H305.885ZM301.885 38.7143H308.742V30.7143H301.885V38.7143ZM304.742 34.7143V41.5714H312.742V34.7143H304.742ZM308.742 37.5714H301.885V45.5714H308.742V37.5714ZM305.885 41.5714V34.7143H297.885V41.5714H305.885ZM301.885 45.5714H308.742V37.5714H301.885V45.5714ZM304.742 41.5714V48.4286H312.742V41.5714H304.742ZM308.742 44.4286H301.885V52.4286H308.742V44.4286ZM305.885 48.4286V41.5714H297.885V48.4286H305.885ZM315.599 59.2857H322.456V51.2857H315.599V59.2857ZM318.456 55.2857V62.1429H326.456V55.2857H318.456ZM322.456 58.1429H315.599V66.1429H322.456V58.1429ZM319.599 62.1429V55.2857H311.599V62.1429H319.599ZM315.599 25H322.456V17H315.599V25ZM318.456 21V27.8571H326.456V21H318.456ZM322.456 23.8571H315.599V31.8571H322.456V23.8571ZM319.599 27.8571V21H311.599V27.8571H319.599Z" fill="#FFBE33" mask="url(#path-1-outside-1_9_50)"/>
</g>
<defs>
<filter id="filter0_ddi_9_50" x="0.497504" y="0.428589" width="350.13" height="98.8856" filterUnits="userSpaceOnUse" color-interpolation-filters="sRGB">
<feFlood flood-opacity="0" result="BackgroundImageFix"/>
<feColorMatrix in="SourceAlpha" type="matrix" values="0 0 0 0 0 0 0 0 0 0 0 0 0 0 0 0 0 0 127 0" result="hardAlpha"/>
<feOffset dx="1" dy="10"/>
<feGaussianBlur stdDeviation="3.3"/>
<feComposite in2="hardAlpha" operator="out"/>
<feColorMatrix type="matrix" values="0 0 0 0 0 0 0 0 0 0 0 0 0 0 0 0 0 0 0.25 0"/>
<feBlend mode="normal" in2="BackgroundImageFix" result="effect1_dropShadow_9_50"/>
<feColorMatrix in="SourceAlpha" type="matrix" values="0 0 0 0 0 0 0 0 0 0 0 0 0 0 0 0 0 0 127 0" result="hardAlpha"/>
<feOffset dy="6"/>
<feComposite in2="hardAlpha" operator="out"/>
<feColorMatrix type="matrix" values="0 0 0 0 0.895833 0 0 0 0 0.447917 0 0 0 0 0 0 0 0 1 0"/>
<feBlend mode="normal" in2="effect1_dropShadow_9_50" result="effect2_dropShadow_9_50"/>
<feBlend mode="normal" in="SourceGraphic" in2="effect2_dropShadow_9_50" result="shape"/>
<feColorMatrix in="SourceAlpha" type="matrix" values="0 0 0 0 0 0 0 0 0 0 0 0 0 0 0 0 0 0 127 0" result="hardAlpha"/>
<feOffset dy="4"/>
<feGaussianBlur stdDeviation="2"/>
<feComposite in2="hardAlpha" operator="arithmetic" k2="-1" k3="1"/>
<feColorMatrix type="matrix" values="0 0 0 0 1 0 0 0 0 1 0 0 0 0 1 0 0 0 0.25 0"/>
<feBlend mode="normal" in2="shape" result="effect3_innerShadow_9_50"/>
</filter>
</defs>
</svg>